<?xml version="1.0" encoding="UTF-8"?>
<svg xmlns="http://www.w3.org/2000/svg" xmlns:xlink="http://www.w3.org/1999/xlink" viewBox="0 0 1920 1080">
  <defs>
    <style>
      .cls-1 {
        fill: #fff;
      }

      .cls-2 {
        fill: url(#Degradado_sin_nombre_6);
      }

      .cls-3 {
        isolation: isolate;
      }

      .cls-4 {
        clip-path: url(#clippath);
      }

      .cls-5 {
        fill: none;
      }

      .cls-6 {
        opacity: .1;
      }

      .cls-6, .cls-7 {
        mix-blend-mode: overlay;
      }

      .cls-7 {
        opacity: .25;
      }
    </style>
    <linearGradient id="Degradado_sin_nombre_6" data-name="Degradado sin nombre 6" x1="960" y1="52.51" x2="960" y2="1658.64" gradientUnits="userSpaceOnUse">
      <stop offset="0" stop-color="#fee27f"/>
      <stop offset="1" stop-color="#f19224"/>
    </linearGradient>
    <clipPath id="clippath">
      <rect class="cls-5" width="1920" height="1080"/>
    </clipPath>
  </defs>
  <g class="cls-3">
    <g id="Capa_2" data-name="Capa 2">
      <rect class="cls-2" width="1920" height="1080"/>
      <g class="cls-4">
        <g class="cls-6">
          <circle class="cls-1" cx="26.64" cy="158.08" r="1.92"/>
          <circle class="cls-1" cx="67.45" cy="117.28" r="1.12"/>
          <circle class="cls-1" cx="108.25" cy="76.47" r=".32"/>
          <circle class="cls-1" cx="26.64" cy="239.7" r="4.16"/>
          <circle class="cls-1" cx="67.45" cy="198.89" r="3.36"/>
          <circle class="cls-1" cx="108.25" cy="158.08" r="2.56"/>
          <circle class="cls-1" cx="149.06" cy="117.28" r="1.6"/>
          <path class="cls-1" d="M190.21,76.81c.19-.19,.19-.49,0-.68s-.49-.19-.68,0-.19,.49,0,.68,.49,.19,.68,0Z"/>
          <circle class="cls-1" cx="26.64" cy="321.31" r="6.4"/>
          <circle class="cls-1" cx="67.45" cy="280.5" r="5.76"/>
          <path class="cls-1" d="M111.65,243.09c1.87-1.87,1.87-4.92,0-6.79s-4.91-1.87-6.79,0-1.87,4.91,0,6.79,4.91,1.88,6.79,0Z"/>
          <circle class="cls-1" cx="149.06" cy="198.89" r="3.84"/>
          <path class="cls-1" d="M191.91,160.12c1.13-1.13,1.13-2.95,0-4.07s-2.95-1.12-4.07,0-1.13,2.95,0,4.07,2.95,1.13,4.07,0Z"/>
          <path class="cls-1" d="M231.92,118.52c.69-.69,.69-1.8,0-2.49s-1.8-.69-2.49,0-.69,1.8,0,2.49,1.8,.69,2.49,0Z"/>
          <path class="cls-1" d="M271.93,76.92c.25-.25,.25-.66,0-.91s-.66-.25-.91,0-.25,.65,0,.9,.66,.25,.91,0Z"/>
          <path class="cls-1" d="M32.75,409.04c3.38-3.38,3.37-8.85,0-12.22s-8.85-3.38-12.22,0-3.37,8.85,0,12.22,8.85,3.38,12.22,0Z"/>
          <circle class="cls-1" cx="67.45" cy="362.12" r="8"/>
          <circle class="cls-1" cx="108.25" cy="321.31" r="7.2"/>
          <path class="cls-1" d="M153.48,284.92c2.44-2.44,2.44-6.39,0-8.83-2.44-2.44-6.39-2.44-8.83,0s-2.44,6.39,0,8.82c2.44,2.44,6.39,2.44,8.83,0Z"/>
          <circle class="cls-1" cx="189.87" cy="239.7" r="5.28"/>
          <circle class="cls-1" cx="230.67" cy="198.89" r="4.16"/>
          <circle class="cls-1" cx="271.48" cy="158.08" r="3.04"/>
          <path class="cls-1" d="M313.53,118.52c.69-.69,.69-1.8,0-2.49s-1.8-.69-2.49,0-.69,1.8,0,2.49,1.8,.69,2.49,0Z"/>
          <path class="cls-1" d="M353.55,76.92c.25-.25,.25-.66,0-.91s-.66-.25-.91,0-.25,.66,0,.9,.66,.25,.91,0Z"/>
          <path class="cls-1" d="M34.34,492.23c4.25-4.25,4.25-11.14,0-15.39s-11.14-4.25-15.39,0c-4.25,4.25-4.25,11.14,0,15.39s11.14,4.25,15.39,0Z"/>
          <circle class="cls-1" cx="67.45" cy="443.73" r="10.24"/>
          <circle class="cls-1" cx="108.25" cy="402.92" r="9.44"/>
          <path class="cls-1" d="M155.17,368.23c3.38-3.38,3.37-8.85,0-12.22s-8.85-3.38-12.22,0-3.37,8.85,0,12.22,8.85,3.38,12.22,0Z"/>
          <path class="cls-1" d="M195.19,326.63c2.94-2.94,2.94-7.7,0-10.64s-7.7-2.94-10.64,0-2.94,7.7,0,10.64,7.7,2.94,10.64,0Z"/>
          <path class="cls-1" d="M235.31,285.14c2.56-2.56,2.56-6.72,0-9.28s-6.72-2.56-9.28,0-2.56,6.72,0,9.28,6.72,2.56,9.28,0Z"/>
          <path class="cls-1" d="M275.33,243.55c2.12-2.12,2.12-5.57,0-7.7s-5.57-2.12-7.69,0-2.12,5.57,0,7.69,5.57,2.13,7.69,0Z"/>
          <circle class="cls-1" cx="312.29" cy="198.89" r="4.16"/>
          <path class="cls-1" d="M355.13,160.12c1.13-1.13,1.13-2.95,0-4.07s-2.95-1.12-4.07,0-1.13,2.95,0,4.07,2.95,1.13,4.07,0Z"/>
          <path class="cls-1" d="M395.03,118.41c.63-.63,.63-1.64,0-2.26s-1.64-.63-2.26,0-.62,1.64,0,2.26,1.64,.63,2.26,0Z"/>
          <path class="cls-1" d="M434.93,76.7c.13-.13,.13-.33,0-.45s-.33-.12-.45,0-.13,.33,0,.45,.33,.12,.45,0Z"/>
          <circle class="cls-1" cx="26.64" cy="566.15" r="12.96"/>
          <path class="cls-1" d="M76.16,534.06c4.81-4.81,4.81-12.61,0-17.43-4.81-4.81-12.61-4.81-17.43,0s-4.81,12.61,0,17.43c4.81,4.81,12.61,4.81,17.43,0Z"/>
          <path class="cls-1" d="M116.52,492.8c4.56-4.56,4.56-11.96,0-16.52s-11.96-4.56-16.52,0-4.56,11.96,0,16.52,11.96,4.56,16.52,0Z"/>
          <path class="cls-1" d="M156.76,451.43c4.25-4.25,4.25-11.14,0-15.39s-11.14-4.25-15.39,0-4.25,11.14,0,15.39,11.14,4.25,15.39,0Z"/>
          <circle class="cls-1" cx="189.87" cy="402.92" r="9.92"/>
          <path class="cls-1" d="M237.01,368.46c3.5-3.5,3.5-9.17,0-12.67-3.5-3.5-9.17-3.5-12.67,0s-3.5,9.17,0,12.67,9.17,3.5,12.67,0Z"/>
          <path class="cls-1" d="M277.03,326.86c3.06-3.06,3.06-8.03,0-11.09s-8.03-3.06-11.09,0-3.06,8.03,0,11.09,8.03,3.06,11.09,0Z"/>
          <path class="cls-1" d="M316.93,285.14c2.56-2.56,2.56-6.72,0-9.28s-6.72-2.56-9.28,0-2.56,6.72,0,9.28,6.72,2.56,9.28,0Z"/>
          <circle class="cls-1" cx="353.09" cy="239.7" r="5.28"/>
          <circle class="cls-1" cx="393.9" cy="198.89" r="3.84"/>
          <path class="cls-1" d="M436.52,159.9c1-1,1-2.62,0-3.62s-2.62-1-3.62,0-1,2.62,0,3.62,2.62,1,3.62,0Z"/>
          <circle class="cls-1" cx="475.51" cy="117.28" r="1.12"/>
          <path class="cls-1" d="M516.43,76.59c.06-.06,.06-.16,0-.23s-.16-.06-.23,0-.06,.16,0,.23,.16,.06,.23,0Z"/>
          <path class="cls-1" d="M-3.53,699.21c5.87-5.87,5.87-15.4,0-21.27-5.87-5.87-15.4-5.87-21.27,0s-5.88,15.4,0,21.27,15.4,5.87,21.27,0Z"/>
          <circle class="cls-1" cx="26.64" cy="647.76" r="14.88"/>
          <path class="cls-1" d="M77.75,617.26c5.69-5.69,5.69-14.91,0-20.59-5.69-5.69-14.91-5.69-20.59,0-5.69,5.69-5.69,14.91,0,20.59s14.91,5.69,20.59,0Z"/>
          <circle class="cls-1" cx="108.25" cy="566.15" r="14.08"/>
          <circle class="cls-1" cx="149.06" cy="525.34" r="13.28"/>
          <path class="cls-1" d="M198.58,493.25c4.81-4.81,4.81-12.61,0-17.43s-12.61-4.81-17.43,0c-4.81,4.81-4.81,12.61,0,17.43s12.61,4.81,17.43,0Z"/>
          <path class="cls-1" d="M238.71,451.77c4.44-4.44,4.44-11.63,0-16.07-4.44-4.44-11.63-4.44-16.07,0-4.44,4.44-4.44,11.63,0,16.07,4.44,4.44,11.63,4.44,16.07,0Z"/>
          <path class="cls-1" d="M278.61,410.05c3.94-3.94,3.94-10.32,0-14.26-3.94-3.94-10.32-3.94-14.26,0s-3.94,10.32,0,14.26,10.32,3.94,14.26,0Z"/>
          <path class="cls-1" d="M318.63,368.46c3.5-3.5,3.5-9.17,0-12.67s-9.17-3.5-12.67,0-3.5,9.17,0,12.67,9.17,3.5,12.67,0Z"/>
          <path class="cls-1" d="M358.53,326.74c3-3,3-7.86,0-10.86s-7.86-3-10.86,0-3,7.86,0,10.86,7.86,3,10.86,0Z"/>
          <path class="cls-1" d="M398.31,284.92c2.44-2.44,2.44-6.39,0-8.83s-6.39-2.44-8.83,0-2.44,6.39,0,8.82,6.39,2.44,8.83,0Z"/>
          <circle class="cls-1" cx="434.71" cy="239.7" r="4.96"/>
          <path class="cls-1" d="M477.89,201.27c1.31-1.31,1.31-3.44,0-4.75s-3.44-1.31-4.75,0-1.31,3.44,0,4.75,3.44,1.31,4.75,0Z"/>
          <circle class="cls-1" cx="516.32" cy="158.08" r="1.92"/>
          <path class="cls-1" d="M557.47,117.62c.19-.19,.19-.49,0-.68s-.49-.19-.68,0-.19,.49,0,.68,.49,.19,.68,0Z"/>
          <path class="cls-1" d="M-2.51,781.84c6.44-6.44,6.44-16.87,0-23.31-6.44-6.44-16.87-6.44-23.31,0-6.44,6.44-6.44,16.87,0,23.31,6.44,6.44,16.87,6.44,23.31,0Z"/>
          <path class="cls-1" d="M38.41,741.15c6.5-6.5,6.5-17.04,0-23.54-6.5-6.5-17.04-6.5-23.54,0-6.5,6.5-6.5,17.04,0,23.54s17.04,6.5,23.54,0Z"/>
          <path class="cls-1" d="M79.1,700.23c6.44-6.44,6.44-16.87,0-23.31-6.44-6.44-16.87-6.44-23.31,0-6.44,6.44-6.44,16.87,0,23.31,6.44,6.44,16.87,6.44,23.31,0Z"/>
          <path class="cls-1" d="M119.68,659.19c6.31-6.31,6.31-16.55,0-22.86s-16.54-6.31-22.86,0c-6.31,6.31-6.31,16.55,0,22.86s16.55,6.31,22.86,0Z"/>
          <path class="cls-1" d="M160.04,617.93c6.06-6.06,6.06-15.89,0-21.95s-15.89-6.06-21.95,0-6.06,15.89,0,21.95,15.89,6.06,21.95,0Z"/>
          <path class="cls-1" d="M200.28,576.56c5.75-5.75,5.75-15.07,0-20.82-5.75-5.75-15.07-5.75-20.82,0-5.75,5.75-5.75,15.07,0,20.82,5.75,5.75,15.07,5.75,20.82,0Z"/>
          <path class="cls-1" d="M240.41,535.08c5.37-5.37,5.37-14.09,0-19.46-5.37-5.37-14.09-5.37-19.46,0s-5.37,14.09,0,19.46c5.37,5.37,14.09,5.37,19.46,0Z"/>
          <path class="cls-1" d="M280.31,493.36c4.87-4.87,4.87-12.78,0-17.65s-12.78-4.87-17.65,0-4.87,12.78,0,17.65,12.78,4.88,17.65,0Z"/>
          <path class="cls-1" d="M320.32,451.77c4.44-4.44,4.44-11.63,0-16.07s-11.63-4.44-16.07,0-4.44,11.63,0,16.07,11.63,4.44,16.07,0Z"/>
          <path class="cls-1" d="M360.22,410.05c3.94-3.94,3.94-10.32,0-14.26s-10.32-3.94-14.26,0-3.94,10.32,0,14.26,10.32,3.94,14.26,0Z"/>
          <path class="cls-1" d="M400.01,368.23c3.38-3.38,3.38-8.85,0-12.22s-8.85-3.37-12.22,0-3.37,8.85,0,12.22,8.85,3.38,12.22,0Z"/>
          <circle class="cls-1" cx="434.71" cy="321.31" r="7.2"/>
          <path class="cls-1" d="M479.59,284.58c2.25-2.25,2.25-5.9,0-8.15s-5.9-2.25-8.15,0-2.25,5.9,0,8.15,5.9,2.25,8.15,0Z"/>
          <path class="cls-1" d="M519.38,242.75c1.69-1.69,1.69-4.42,0-6.11s-4.42-1.69-6.11,0-1.69,4.42,0,6.11,4.42,1.69,6.11,0Z"/>
          <path class="cls-1" d="M559.05,200.82c1.06-1.06,1.06-2.79,0-3.85s-2.78-1.06-3.85,0-1.06,2.78,0,3.85,2.78,1.06,3.85,0Z"/>
          <path class="cls-1" d="M598.84,158.99c.5-.5,.5-1.31,0-1.81s-1.31-.5-1.81,0-.5,1.31,0,1.81,1.31,.5,1.81,0Z"/>
          <path class="cls-1" d="M638.85,117.39c.06-.06,.06-.16,0-.23s-.16-.06-.23,0-.06,.16,0,.23,.16,.06,.23,0Z"/>
          <path class="cls-1" d="M-1.72,864.25c6.87-6.87,6.88-18.02,0-24.89-6.87-6.87-18.02-6.87-24.89,0s-6.88,18.02,0,24.89c6.88,6.88,18.02,6.87,24.89,0Z"/>
          <path class="cls-1" d="M39.54,823.89c7.12-7.12,7.12-18.68,0-25.8-7.12-7.12-18.67-7.12-25.8,0-7.12,7.12-7.12,18.68,0,25.8,7.12,7.12,18.68,7.13,25.8,0Z"/>
          <path class="cls-1" d="M80.46,783.2c7.19-7.19,7.19-18.84,0-26.03-7.19-7.19-18.84-7.19-26.03,0s-7.19,18.84,0,26.03c7.19,7.19,18.84,7.19,26.03,0Z"/>
          <path class="cls-1" d="M121.16,742.28c7.12-7.12,7.12-18.68,0-25.8s-18.67-7.12-25.8,0c-7.12,7.12-7.12,18.68,0,25.8,7.12,7.12,18.68,7.13,25.8,0Z"/>
          <path class="cls-1" d="M161.62,701.13c6.94-6.94,6.94-18.18,0-25.12-6.94-6.94-18.18-6.94-25.12,0-6.94,6.94-6.94,18.18,0,25.12,6.94,6.94,18.18,6.94,25.12,0Z"/>
          <path class="cls-1" d="M201.86,659.76c6.62-6.62,6.62-17.36,0-23.99-6.62-6.62-17.36-6.62-23.99,0-6.62,6.62-6.62,17.36,0,23.99s17.37,6.62,23.99,0Z"/>
          <circle class="cls-1" cx="230.67" cy="606.96" r="16"/>
          <path class="cls-1" d="M282.12,576.79c5.87-5.87,5.88-15.4,0-21.27s-15.4-5.87-21.27,0-5.87,15.4,0,21.27,15.4,5.88,21.27,0Z"/>
          <path class="cls-1" d="M322.02,535.08c5.37-5.37,5.37-14.09,0-19.46s-14.09-5.37-19.46,0-5.37,14.09,0,19.46,14.09,5.37,19.46,0Z"/>
          <path class="cls-1" d="M361.81,493.25c4.81-4.81,4.81-12.61,0-17.43s-12.61-4.81-17.43,0-4.81,12.61,0,17.42,12.61,4.81,17.43,0Z"/>
          <path class="cls-1" d="M401.6,451.43c4.25-4.25,4.25-11.14,0-15.39s-11.14-4.25-15.39,0c-4.25,4.25-4.25,11.14,0,15.39s11.14,4.25,15.39,0Z"/>
          <path class="cls-1" d="M441.5,409.71c3.75-3.75,3.75-9.83,0-13.58-3.75-3.75-9.83-3.75-13.58,0s-3.75,9.83,0,13.58,9.83,3.75,13.58,0Z"/>
          <circle class="cls-1" cx="475.51" cy="362.12" r="8"/>
          <path class="cls-1" d="M520.96,325.95c2.56-2.56,2.56-6.72,0-9.28s-6.72-2.56-9.28,0-2.56,6.72,0,9.28,6.72,2.56,9.28,0Z"/>
          <circle class="cls-1" cx="557.13" cy="280.5" r="4.96"/>
          <path class="cls-1" d="M600.31,242.08c1.31-1.31,1.31-3.44,0-4.75s-3.44-1.31-4.75,0-1.31,3.44,0,4.75,3.44,1.31,4.75,0Z"/>
          <path class="cls-1" d="M639.99,200.14c.69-.69,.69-1.8,0-2.49s-1.8-.69-2.49,0-.69,1.8,0,2.49,1.8,.69,2.49,0Z"/>
          <path class="cls-1" d="M679.77,158.31c.13-.13,.13-.33,0-.45s-.33-.12-.45,0-.12,.33,0,.45,.33,.13,.45,0Z"/>
          <path class="cls-1" d="M-1.15,946.42c7.19-7.19,7.19-18.84,0-26.03-7.19-7.19-18.84-7.19-26.02,0-7.19,7.19-7.19,18.84,0,26.03s18.84,7.19,26.03,0Z"/>
          <path class="cls-1" d="M40.22,906.18c7.5-7.5,7.5-19.66,0-27.16-7.5-7.5-19.66-7.5-27.16,0-7.5,7.5-7.5,19.66,0,27.16,7.5,7.5,19.66,7.5,27.16,0Z"/>
          <path class="cls-1" d="M81.48,865.83c7.75-7.75,7.75-20.31,0-28.06-7.75-7.75-20.31-7.75-28.06,0s-7.75,20.31,0,28.06c7.75,7.75,20.31,7.75,28.06,0Z"/>
          <path class="cls-1" d="M122.4,825.14c7.81-7.81,7.81-20.48,0-28.29-7.81-7.81-20.48-7.81-28.29,0-7.81,7.81-7.81,20.48,0,28.29s20.48,7.81,28.29,0Z"/>
          <path class="cls-1" d="M163.09,784.22c7.75-7.75,7.75-20.31,0-28.06-7.75-7.75-20.31-7.75-28.06,0s-7.75,20.31,0,28.06c7.75,7.75,20.31,7.75,28.06,0Z"/>
          <path class="cls-1" d="M203.56,743.07c7.56-7.56,7.56-19.82,0-27.38s-19.82-7.56-27.38,0c-7.56,7.56-7.56,19.82,0,27.38,7.56,7.56,19.82,7.56,27.38,0Z"/>
          <path class="cls-1" d="M243.69,701.58c7.19-7.19,7.19-18.84,0-26.03s-18.84-7.19-26.03,0c-7.19,7.19-7.19,18.84,0,26.03,7.19,7.19,18.84,7.19,26.03,0Z"/>
          <path class="cls-1" d="M283.7,659.99c6.75-6.75,6.75-17.69,0-24.44-6.75-6.75-17.69-6.75-24.44,0-6.75,6.75-6.75,17.69,0,24.44,6.75,6.75,17.69,6.75,24.44,0Z"/>
          <path class="cls-1" d="M323.72,618.39c6.31-6.31,6.31-16.55,0-22.86-6.31-6.31-16.55-6.31-22.86,0s-6.31,16.55,0,22.86c6.31,6.31,16.55,6.31,22.86,0Z"/>
          <path class="cls-1" d="M363.51,576.56c5.75-5.75,5.75-15.07,0-20.82-5.75-5.75-15.07-5.75-20.82,0-5.75,5.75-5.75,15.07,0,20.82,5.75,5.75,15.07,5.75,20.82,0Z"/>
          <path class="cls-1" d="M403.29,534.74c5.19-5.19,5.19-13.6,0-18.78-5.19-5.19-13.6-5.19-18.78,0s-5.19,13.6,0,18.78c5.19,5.19,13.6,5.19,18.78,0Z"/>
          <path class="cls-1" d="M443.08,492.91c4.63-4.63,4.63-12.12,0-16.75s-12.12-4.62-16.75,0-4.63,12.12,0,16.75c4.63,4.63,12.12,4.62,16.75,0Z"/>
          <path class="cls-1" d="M482.76,450.97c4-4,4-10.49,0-14.48s-10.48-4-14.48,0-4,10.48,0,14.48c4,4,10.49,4,14.48,0Z"/>
          <path class="cls-1" d="M522.43,409.04c3.38-3.38,3.38-8.85,0-12.22s-8.85-3.37-12.22,0-3.37,8.85,0,12.22,8.85,3.38,12.22,0Z"/>
          <path class="cls-1" d="M562.22,367.21c2.81-2.81,2.81-7.37,0-10.18s-7.37-2.81-10.18,0-2.81,7.37,0,10.18,7.37,2.81,10.18,0Z"/>
          <path class="cls-1" d="M601.9,325.27c2.19-2.19,2.19-5.73,0-7.92s-5.73-2.19-7.92,0-2.19,5.73,0,7.92,5.73,2.19,7.92,0Z"/>
          <path class="cls-1" d="M641.57,283.33c1.56-1.56,1.56-4.1,0-5.66s-4.09-1.56-5.66,0-1.56,4.09,0,5.66,4.1,1.56,5.66,0Z"/>
          <path class="cls-1" d="M681.25,241.4c.94-.94,.94-2.46,0-3.4s-2.46-.94-3.39,0-.94,2.46,0,3.39,2.46,.94,3.39,0Z"/>
          <path class="cls-1" d="M720.92,199.46c.31-.31,.31-.82,0-1.13s-.82-.31-1.13,0-.31,.82,0,1.13,.82,.31,1.13,0Z"/>
          <path class="cls-1" d="M-1.15,1028.04c7.19-7.19,7.19-18.84,0-26.02-7.19-7.19-18.84-7.19-26.03,0-7.19,7.19-7.19,18.84,0,26.03s18.84,7.19,26.03,0Z"/>
          <path class="cls-1" d="M40.45,988.02c7.62-7.62,7.62-19.98,0-27.61-7.62-7.62-19.99-7.62-27.61,0-7.62,7.62-7.62,19.99,0,27.61s19.98,7.62,27.61,0Z"/>
          <path class="cls-1" d="M82.05,948.01c8.06-8.06,8.06-21.13,0-29.19-8.06-8.06-21.13-8.06-29.19,0-8.06,8.06-8.06,21.13,0,29.19s21.13,8.06,29.19,0Z"/>
          <path class="cls-1" d="M123.42,907.77c8.37-8.37,8.37-21.95,0-30.32s-21.95-8.37-30.33,0-8.37,21.95,0,30.33c8.37,8.37,21.95,8.37,30.33,0Z"/>
          <path class="cls-1" d="M164.45,867.19c8.5-8.5,8.5-22.28,0-30.78-8.5-8.5-22.28-8.5-30.78,0-8.5,8.5-8.5,22.28,0,30.78s22.28,8.5,30.78,0Z"/>
          <path class="cls-1" d="M205.03,826.15c8.37-8.37,8.37-21.95,0-30.33-8.37-8.37-21.95-8.37-30.33,0-8.37,8.37-8.37,21.95,0,30.33,8.37,8.37,21.95,8.37,30.33,0Z"/>
          <path class="cls-1" d="M245.39,784.9c8.12-8.12,8.12-21.3,0-29.42s-21.3-8.13-29.42,0c-8.12,8.12-8.12,21.3,0,29.42,8.12,8.12,21.3,8.12,29.42,0Z"/>
          <path class="cls-1" d="M285.4,743.3c7.69-7.69,7.69-20.15,0-27.84-7.69-7.69-20.15-7.69-27.84,0-7.69,7.69-7.69,20.15,0,27.84s20.15,7.69,27.84,0Z"/>
          <path class="cls-1" d="M325.3,701.58c7.19-7.19,7.19-18.84,0-26.03-7.19-7.19-18.84-7.19-26.03,0s-7.19,18.84,0,26.03c7.19,7.19,18.84,7.19,26.03,0Z"/>
          <path class="cls-1" d="M365.09,659.76c6.62-6.62,6.62-17.36,0-23.99-6.62-6.62-17.37-6.62-23.99,0-6.62,6.62-6.62,17.36,0,23.99,6.62,6.62,17.36,6.62,23.99,0Z"/>
          <path class="cls-1" d="M404.88,617.93c6.06-6.06,6.06-15.89,0-21.95s-15.89-6.06-21.95,0-6.06,15.89,0,21.95c6.06,6.06,15.89,6.06,21.95,0Z"/>
          <circle class="cls-1" cx="434.71" cy="566.15" r="14.08"/>
          <path class="cls-1" d="M484.34,534.17c4.87-4.87,4.87-12.78,0-17.65-4.88-4.88-12.78-4.88-17.65,0s-4.87,12.78,0,17.65,12.78,4.87,17.65,0Z"/>
          <path class="cls-1" d="M524.02,492.23c4.25-4.25,4.25-11.14,0-15.39s-11.14-4.25-15.39,0-4.25,11.14,0,15.39,11.14,4.25,15.39,0Z"/>
          <path class="cls-1" d="M563.69,450.29c3.63-3.63,3.63-9.5,0-13.13s-9.5-3.63-13.13,0-3.62,9.5,0,13.13,9.5,3.62,13.12,0Z"/>
          <path class="cls-1" d="M603.37,408.36c3-3,3-7.86,0-10.86s-7.86-3-10.86,0-3,7.86,0,10.86,7.86,3,10.86,0Z"/>
          <circle class="cls-1" cx="638.74" cy="362.12" r="6.08"/>
          <path class="cls-1" d="M682.72,324.48c1.75-1.75,1.75-4.59,0-6.34s-4.59-1.75-6.34,0-1.75,4.59,0,6.34,4.59,1.75,6.34,0Z"/>
          <path class="cls-1" d="M722.28,282.43c1.06-1.06,1.06-2.79,0-3.85s-2.79-1.06-3.85,0-1.06,2.78,0,3.85,2.78,1.06,3.85,0Z"/>
          <path class="cls-1" d="M761.95,240.49c.44-.44,.44-1.15,0-1.59s-1.15-.44-1.59,0-.44,1.15,0,1.59,1.15,.44,1.58,0Z"/>
          <path class="cls-1" d="M-1.72,1109.08c6.87-6.87,6.87-18.02,0-24.89s-18.02-6.88-24.89,0c-6.87,6.87-6.88,18.02,0,24.89,6.87,6.87,18.02,6.87,24.89,0Z"/>
          <path class="cls-1" d="M40.22,1069.41c7.5-7.5,7.5-19.66,0-27.16s-19.66-7.5-27.16,0c-7.5,7.5-7.5,19.66,0,27.16,7.5,7.5,19.66,7.5,27.16,0Z"/>
          <path class="cls-1" d="M82.05,1029.62c8.06-8.06,8.06-21.13,0-29.19s-21.13-8.06-29.19,0-8.06,21.13,0,29.19c8.06,8.06,21.13,8.06,29.19,0Z"/>
          <path class="cls-1" d="M123.76,989.72c8.56-8.56,8.56-22.44,0-31-8.56-8.56-22.44-8.56-31,0-8.56,8.56-8.56,22.44,0,31.01,8.56,8.56,22.44,8.56,31,0Z"/>
          <path class="cls-1" d="M165.36,949.71c9-9,9-23.59,0-32.59-9-9-23.59-9-32.59,0-9,9-9,23.59,0,32.59,9,9,23.59,9,32.59,0Z"/>
          <path class="cls-1" d="M206.39,909.13c9.12-9.12,9.12-23.92,0-33.04-9.12-9.12-23.92-9.13-33.04,0-9.12,9.12-9.12,23.92,0,33.04,9.12,9.12,23.92,9.12,33.04,0Z"/>
          <path class="cls-1" d="M246.97,868.09c9-9,9-23.59,0-32.59-9-9-23.59-9-32.59,0-9,9-9,23.59,0,32.59,9,9,23.59,9,32.59,0Z"/>
          <circle class="cls-1" cx="271.48" cy="810.99" r="22.08"/>
          <path class="cls-1" d="M327,784.9c8.12-8.12,8.12-21.3,0-29.42-8.12-8.12-21.3-8.13-29.42,0s-8.12,21.3,0,29.42,21.3,8.12,29.42,0Z"/>
          <path class="cls-1" d="M366.79,743.07c7.56-7.56,7.56-19.82,0-27.38s-19.82-7.56-27.38,0-7.56,19.82,0,27.38c7.56,7.56,19.82,7.56,27.38,0Z"/>
          <path class="cls-1" d="M406.46,701.13c6.94-6.94,6.94-18.18,0-25.12-6.94-6.94-18.18-6.94-25.12,0s-6.94,18.18,0,25.12c6.94,6.94,18.18,6.94,25.12,0Z"/>
          <path class="cls-1" d="M446.14,659.19c6.31-6.31,6.31-16.55,0-22.86-6.31-6.31-16.55-6.31-22.86,0-6.31,6.31-6.31,16.55,0,22.86s16.54,6.31,22.86,0Z"/>
          <path class="cls-1" d="M485.93,617.37c5.75-5.75,5.75-15.07,0-20.82-5.75-5.75-15.07-5.75-20.82,0s-5.75,15.07,0,20.82,15.07,5.75,20.82,0Z"/>
          <circle class="cls-1" cx="516.32" cy="566.15" r="12.96"/>
          <path class="cls-1" d="M565.16,533.38c4.44-4.44,4.44-11.63,0-16.07s-11.63-4.44-16.07,0-4.44,11.63,0,16.07,11.63,4.44,16.07,0Z"/>
          <path class="cls-1" d="M604.84,491.44c3.81-3.81,3.81-9.99,0-13.81s-9.99-3.81-13.81,0-3.81,9.99,0,13.81,9.99,3.81,13.8,0Z"/>
          <circle class="cls-1" cx="638.74" cy="443.73" r="8"/>
          <path class="cls-1" d="M684.07,407.45c2.5-2.5,2.5-6.55,0-9.05s-6.55-2.5-9.05,0-2.5,6.55,0,9.05,6.55,2.5,9.05,0Z"/>
          <path class="cls-1" d="M723.75,365.51c1.88-1.88,1.88-4.91,0-6.79s-4.91-1.88-6.79,0-1.87,4.91,0,6.79,4.91,1.87,6.79,0Z"/>
          <circle class="cls-1" cx="761.16" cy="321.31" r="3.04"/>
          <path class="cls-1" d="M802.99,281.52c.56-.56,.56-1.48,0-2.04s-1.48-.56-2.04,0-.56,1.47,0,2.04,1.47,.56,2.04,0Z"/>
          <path class="cls-1" d="M842.89,239.81c.06-.06,.06-.16,0-.23s-.16-.06-.23,0-.06,.16,0,.23,.16,.06,.23,0Z"/>
          <path class="cls-1" d="M81.48,1110.67c7.75-7.75,7.75-20.31,0-28.06-7.75-7.75-20.31-7.75-28.06,0s-7.75,20.31,0,28.06c7.75,7.75,20.31,7.75,28.06,0Z"/>
          <path class="cls-1" d="M123.42,1070.99c8.37-8.37,8.37-21.95,0-30.32s-21.95-8.37-30.33,0c-8.37,8.37-8.37,21.95,0,30.33,8.37,8.37,21.95,8.37,30.33,0Z"/>
          <path class="cls-1" d="M165.36,1031.32c9-9,9-23.59,0-32.59s-23.59-9-32.59,0c-9,9-9,23.59,0,32.59,9,9,23.59,9,32.59,0Z"/>
          <circle class="cls-1" cx="189.87" cy="974.22" r="24.32"/>
          <path class="cls-1" d="M248.33,951.06c9.75-9.75,9.75-25.55,0-35.3-9.75-9.75-25.56-9.75-35.3,0-9.75,9.75-9.75,25.56,0,35.31,9.75,9.75,25.56,9.75,35.3,0Z"/>
          <path class="cls-1" d="M288.79,909.92c9.56-9.56,9.56-25.06,0-34.63-9.56-9.56-25.07-9.56-34.63,0-9.56,9.56-9.56,25.06,0,34.63,9.56,9.56,25.06,9.56,34.63,0Z"/>
          <circle class="cls-1" cx="312.29" cy="851.8" r="23.2"/>
          <path class="cls-1" d="M368.37,826.27c8.44-8.44,8.44-22.12,0-30.55s-22.12-8.44-30.55,0-8.44,22.12,0,30.55c8.44,8.44,22.11,8.44,30.55,0Z"/>
          <path class="cls-1" d="M408.05,784.33c7.81-7.81,7.81-20.48,0-28.29s-20.48-7.81-28.29,0c-7.81,7.81-7.81,20.48,0,28.29,7.81,7.81,20.48,7.81,28.29,0Z"/>
          <path class="cls-1" d="M447.72,742.39c7.19-7.19,7.19-18.84,0-26.03s-18.84-7.19-26.03,0-7.19,18.84,0,26.03c7.19,7.19,18.84,7.19,26.03,0Z"/>
          <path class="cls-1" d="M487.28,700.34c6.5-6.5,6.5-17.04,0-23.54-6.5-6.5-17.04-6.5-23.54,0-6.5,6.5-6.5,17.04,0,23.54,6.5,6.5,17.04,6.5,23.54,0Z"/>
          <path class="cls-1" d="M526.96,658.4c5.87-5.87,5.88-15.4,0-21.27s-15.4-5.87-21.27,0c-5.87,5.87-5.87,15.4,0,21.27,5.87,5.87,15.4,5.87,21.27,0Z"/>
          <circle class="cls-1" cx="557.13" cy="606.96" r="13.28"/>
          <path class="cls-1" d="M606.2,574.41c4.56-4.56,4.56-11.96,0-16.52-4.56-4.56-11.96-4.56-16.52,0s-4.56,11.96,0,16.52,11.96,4.56,16.52,0Z"/>
          <circle class="cls-1" cx="638.74" cy="525.35" r="9.92"/>
          <path class="cls-1" d="M685.43,490.42c3.25-3.25,3.25-8.52,0-11.77s-8.52-3.25-11.77,0-3.25,8.52,0,11.77,8.52,3.25,11.77,0Z"/>
          <path class="cls-1" d="M724.99,448.37c2.56-2.56,2.56-6.72,0-9.28s-6.72-2.56-9.28,0-2.56,6.72,0,9.28,6.72,2.56,9.28,0Z"/>
          <circle class="cls-1" cx="761.16" cy="402.93" r="4.96"/>
          <path class="cls-1" d="M804.23,364.38c1.25-1.25,1.25-3.28,0-4.53s-3.28-1.25-4.53,0-1.25,3.28,0,4.53,3.28,1.25,4.53,0Z"/>
          <path class="cls-1" d="M843.91,322.44c.63-.63,.63-1.64,0-2.26s-1.64-.63-2.26,0-.62,1.64,0,2.26,1.64,.62,2.26,0Z"/>
          <path class="cls-1" d="M883.69,280.62c.06-.06,.06-.16,0-.23s-.16-.06-.23,0-.06,.16,0,.23,.16,.06,.23,0Z"/>
          <path class="cls-1" d="M164.45,1112.03c8.5-8.5,8.5-22.28,0-30.78s-22.28-8.5-30.78,0c-8.5,8.5-8.5,22.28,0,30.78,8.5,8.5,22.28,8.5,30.78,0Z"/>
          <path class="cls-1" d="M206.39,1072.35c9.12-9.12,9.12-23.92,0-33.04-9.12-9.12-23.92-9.13-33.04,0-9.12,9.12-9.12,23.92,0,33.04s23.92,9.12,33.04,0Z"/>
          <path class="cls-1" d="M248.33,1032.68c9.75-9.75,9.75-25.55,0-35.3-9.75-9.75-25.56-9.75-35.3,0s-9.75,25.56,0,35.31c9.75,9.75,25.56,9.75,35.3,0Z"/>
          <circle class="cls-1" cx="271.48" cy="974.22" r="26.24"/>
          <circle class="cls-1" cx="312.29" cy="933.41" r="25.12"/>
          <path class="cls-1" d="M369.73,909.24c9.19-9.19,9.19-24.08,0-33.27-9.19-9.19-24.08-9.19-33.27,0-9.19,9.19-9.19,24.08,0,33.27,9.19,9.19,24.08,9.19,33.27,0Z"/>
          <path class="cls-1" d="M409.4,867.3c8.56-8.56,8.56-22.44,0-31-8.56-8.56-22.44-8.56-31,0s-8.56,22.44,0,31c8.56,8.56,22.44,8.56,31,0Z"/>
          <circle class="cls-1" cx="434.71" cy="810.99" r="20.16"/>
          <path class="cls-1" d="M488.64,783.31c7.25-7.25,7.25-19,0-26.25s-19-7.25-26.25,0c-7.25,7.25-7.25,19,0,26.25,7.25,7.25,19,7.25,26.25,0Z"/>
          <path class="cls-1" d="M528.2,741.26c6.56-6.56,6.56-17.2,0-23.76s-17.2-6.56-23.76,0c-6.56,6.56-6.56,17.2,0,23.76s17.2,6.56,23.76,0Z"/>
          <circle class="cls-1" cx="557.13" cy="688.57" r="15.2"/>
          <path class="cls-1" d="M607.44,657.27c5.25-5.25,5.25-13.76,0-19.01-5.25-5.25-13.76-5.25-19.01,0s-5.25,13.76,0,19.01,13.76,5.25,19.01,0Z"/>
          <path class="cls-1" d="M647,615.22c4.56-4.56,4.56-11.96,0-16.52-4.56-4.56-11.96-4.56-16.52,0s-4.56,11.96,0,16.52,11.96,4.56,16.52,0Z"/>
          <path class="cls-1" d="M686.68,573.28c3.94-3.94,3.94-10.32,0-14.26s-10.32-3.94-14.26,0-3.94,10.32,0,14.26,10.32,3.94,14.26,0Z"/>
          <circle class="cls-1" cx="720.36" cy="525.35" r="8.32"/>
          <path class="cls-1" d="M765.91,489.29c2.63-2.63,2.63-6.88,0-9.51s-6.88-2.63-9.51,0-2.62,6.88,0,9.51,6.88,2.62,9.5,0Z"/>
          <circle class="cls-1" cx="801.97" cy="443.73" r="4.96"/>
          <path class="cls-1" d="M845.15,405.3c1.31-1.31,1.31-3.44,0-4.75s-3.44-1.31-4.75,0-1.31,3.44,0,4.75,3.44,1.31,4.75,0Z"/>
          <path class="cls-1" d="M884.71,363.25c.63-.63,.63-1.64,0-2.26s-1.64-.63-2.26,0-.62,1.64,0,2.26,1.64,.62,2.26,0Z"/>
          <path class="cls-1" d="M924.5,321.42c.06-.06,.06-.16,0-.23s-.16-.06-.23,0-.06,.16,0,.23,.16,.06,.23,0Z"/>
          <path class="cls-1" d="M246.97,1112.93c9-9,9-23.59,0-32.59s-23.59-9-32.59,0c-9,9-9,23.59,0,32.59,9,9,23.59,9,32.59,0Z"/>
          <path class="cls-1" d="M288.79,1073.14c9.56-9.56,9.56-25.06,0-34.62s-25.06-9.56-34.63,0c-9.56,9.56-9.56,25.06,0,34.63,9.56,9.56,25.06,9.56,34.63,0Z"/>
          <circle class="cls-1" cx="312.29" cy="1015.03" r="25.12"/>
          <path class="cls-1" d="M370.41,991.53c9.56-9.56,9.56-25.06,0-34.63-9.56-9.56-25.07-9.56-34.63,0s-9.56,25.06,0,34.63c9.56,9.56,25.06,9.56,34.63,0Z"/>
          <circle class="cls-1" cx="393.9" cy="933.41" r="23.2"/>
          <path class="cls-1" d="M449.98,907.88c8.44-8.44,8.44-22.12,0-30.55s-22.12-8.44-30.55,0-8.44,22.12,0,30.55c8.44,8.44,22.11,8.44,30.55,0Z"/>
          <path class="cls-1" d="M489.66,865.94c7.81-7.81,7.81-20.48,0-28.29-7.81-7.81-20.48-7.81-28.29,0s-7.81,20.48,0,28.29,20.48,7.81,28.29,0Z"/>
          <path class="cls-1" d="M529.33,824c7.19-7.19,7.19-18.84,0-26.03s-18.84-7.19-26.03,0c-7.19,7.19-7.19,18.84,0,26.03s18.84,7.19,26.03,0Z"/>
          <path class="cls-1" d="M568.9,781.95c6.5-6.5,6.5-17.04,0-23.54-6.5-6.5-17.04-6.5-23.54,0-6.5,6.5-6.5,17.04,0,23.54s17.04,6.5,23.54,0Z"/>
          <path class="cls-1" d="M608.57,740.01c5.87-5.87,5.88-15.4,0-21.27s-15.4-5.87-21.27,0-5.87,15.4,0,21.27,15.4,5.87,21.27,0Z"/>
          <circle class="cls-1" cx="638.74" cy="688.57" r="13.28"/>
          <path class="cls-1" d="M687.81,656.03c4.56-4.56,4.56-11.96,0-16.52s-11.96-4.56-16.52,0-4.56,11.96,0,16.52,11.96,4.56,16.52,0Z"/>
          <path class="cls-1" d="M727.48,614.09c3.94-3.94,3.94-10.32,0-14.26s-10.32-3.94-14.26,0-3.94,10.32,0,14.26,10.32,3.94,14.26,0Z"/>
          <circle class="cls-1" cx="761.16" cy="566.15" r="8.32"/>
          <path class="cls-1" d="M806.61,529.98c2.56-2.56,2.56-6.72,0-9.28s-6.72-2.56-9.28,0-2.56,6.72,0,9.28,6.72,2.56,9.28,0Z"/>
          <circle class="cls-1" cx="842.78" cy="484.54" r="4.96"/>
          <path class="cls-1" d="M885.84,445.99c1.25-1.25,1.25-3.28,0-4.53s-3.28-1.25-4.53,0-1.25,3.28,0,4.53,3.28,1.25,4.53,0Z"/>
          <path class="cls-1" d="M925.52,404.06c.63-.63,.63-1.64,0-2.26s-1.64-.63-2.26,0-.62,1.64,0,2.26,1.64,.62,2.26,0Z"/>
          <path class="cls-1" d="M965.31,362.23c.06-.06,.06-.16,0-.23s-.16-.06-.23,0-.06,.16,0,.23,.16,.06,.23,0Z"/>
          <circle class="cls-1" cx="312.29" cy="1096.64" r="23.2"/>
          <circle class="cls-1" cx="353.1" cy="1055.83" r="23.52"/>
          <circle class="cls-1" cx="393.9" cy="1015.03" r="23.2"/>
          <path class="cls-1" d="M450.44,989.95c8.69-8.69,8.69-22.77,0-31.46s-22.77-8.69-31.46,0-8.69,22.77,0,31.46,22.77,8.69,31.46,0Z"/>
          <path class="cls-1" d="M490.23,948.12c8.12-8.12,8.12-21.3,0-29.42-8.12-8.12-21.3-8.13-29.42,0s-8.12,21.3,0,29.42c8.12,8.12,21.3,8.12,29.42,0Z"/>
          <circle class="cls-1" cx="516.32" cy="892.61" r="19.36"/>
          <circle class="cls-1" cx="557.13" cy="851.8" r="17.92"/>
          <circle class="cls-1" cx="597.94" cy="810.99" r="16.32"/>
          <path class="cls-1" d="M649.15,780.6c5.75-5.75,5.75-15.07,0-20.82-5.75-5.75-15.07-5.75-20.82,0-5.75,5.75-5.75,15.07,0,20.82s15.07,5.75,20.82,0Z"/>
          <circle class="cls-1" cx="679.55" cy="729.38" r="12.96"/>
          <circle class="cls-1" cx="720.36" cy="688.57" r="11.36"/>
          <path class="cls-1" d="M768.06,654.67c3.81-3.81,3.81-9.99,0-13.81s-9.99-3.81-13.81,0-3.81,9.99,0,13.81,9.99,3.81,13.8,0Z"/>
          <circle class="cls-1" cx="801.97" cy="606.96" r="8"/>
          <path class="cls-1" d="M847.3,570.68c2.5-2.5,2.5-6.55,0-9.05s-6.55-2.5-9.05,0-2.5,6.55,0,9.05,6.55,2.5,9.05,0Z"/>
          <path class="cls-1" d="M886.98,528.74c1.88-1.88,1.88-4.91,0-6.79s-4.91-1.88-6.79,0-1.87,4.91,0,6.79,4.91,1.87,6.79,0Z"/>
          <circle class="cls-1" cx="924.39" cy="484.54" r="3.04"/>
          <path class="cls-1" d="M966.21,444.75c.56-.56,.56-1.48,0-2.04s-1.47-.56-2.04,0-.56,1.47,0,2.04,1.47,.56,2.04,0Z"/>
          <path class="cls-1" d="M1006.11,403.04c.06-.06,.06-.16,0-.23s-.16-.06-.23,0-.06,.16,0,.23,.16,.06,.23,0Z"/>
          <path class="cls-1" d="M409.4,1112.14c8.56-8.56,8.56-22.44,0-31s-22.44-8.56-31,0c-8.56,8.56-8.56,22.44,0,31.01s22.44,8.56,31,0Z"/>
          <circle class="cls-1" cx="434.71" cy="1055.83" r="21.6"/>
          <path class="cls-1" d="M490.23,1029.74c8.12-8.12,8.12-21.3,0-29.42-8.12-8.12-21.3-8.13-29.42,0-8.12,8.12-8.12,21.3,0,29.42s21.3,8.12,29.42,0Z"/>
          <circle class="cls-1" cx="516.32" cy="974.22" r="19.84"/>
          <circle class="cls-1" cx="557.13" cy="933.41" r="18.56"/>
          <circle class="cls-1" cx="597.94" cy="892.61" r="17.12"/>
          <circle class="cls-1" cx="638.74" cy="851.8" r="15.68"/>
          <circle class="cls-1" cx="679.55" cy="810.99" r="14.08"/>
          <circle class="cls-1" cx="720.36" cy="770.19" r="12.48"/>
          <path class="cls-1" d="M768.86,737.07c4.25-4.25,4.25-11.14,0-15.39s-11.14-4.25-15.39,0c-4.25,4.25-4.25,11.14,0,15.39,4.25,4.25,11.14,4.25,15.39,0Z"/>
          <path class="cls-1" d="M808.53,695.13c3.63-3.63,3.63-9.5,0-13.13s-9.5-3.63-13.13,0-3.62,9.5,0,13.13,9.5,3.62,13.12,0Z"/>
          <circle class="cls-1" cx="842.78" cy="647.77" r="7.68"/>
          <circle class="cls-1" cx="883.58" cy="606.96" r="6.08"/>
          <path class="cls-1" d="M927.56,569.32c1.75-1.75,1.75-4.59,0-6.34s-4.59-1.75-6.34,0-1.75,4.59,0,6.34,4.59,1.75,6.34,0Z"/>
          <path class="cls-1" d="M967.12,527.27c1.06-1.06,1.06-2.79,0-3.85s-2.79-1.06-3.85,0-1.06,2.78,0,3.85,2.78,1.06,3.85,0Z"/>
          <path class="cls-1" d="M1006.79,485.33c.44-.44,.44-1.15,0-1.59s-1.15-.44-1.59,0-.44,1.15,0,1.58,1.15,.44,1.58,0Z"/>
          <path class="cls-1" d="M489.66,1110.78c7.81-7.81,7.81-20.48,0-28.29-7.81-7.81-20.48-7.81-28.29,0s-7.81,20.48,0,28.29c7.81,7.81,20.48,7.81,28.29,0Z"/>
          <circle class="cls-1" cx="516.32" cy="1055.83" r="19.36"/>
          <circle class="cls-1" cx="557.13" cy="1015.03" r="18.56"/>
          <circle class="cls-1" cx="597.94" cy="974.22" r="17.44"/>
          <path class="cls-1" d="M650.17,944.84c6.31-6.31,6.31-16.55,0-22.86-6.31-6.31-16.55-6.31-22.86,0-6.31,6.31-6.31,16.55,0,22.86s16.54,6.31,22.86,0Z"/>
          <circle class="cls-1" cx="679.55" cy="892.61" r="14.88"/>
          <path class="cls-1" d="M729.86,861.3c5.25-5.25,5.25-13.76,0-19.01s-13.76-5.25-19.01,0-5.25,13.76,0,19.01,13.76,5.25,19.01,0Z"/>
          <circle class="cls-1" cx="761.16" cy="810.99" r="11.84"/>
          <path class="cls-1" d="M809.32,777.54c4.06-4.06,4.06-10.65,0-14.71s-10.65-4.06-14.71,0-4.06,10.65,0,14.71,10.65,4.06,14.71,0Z"/>
          <circle class="cls-1" cx="842.78" cy="729.38" r="8.8"/>
          <circle class="cls-1" cx="883.58" cy="688.57" r="7.2"/>
          <path class="cls-1" d="M928.35,651.73c2.19-2.19,2.19-5.73,0-7.92s-5.73-2.19-7.92,0-2.19,5.73,0,7.92,5.73,2.19,7.92,0Z"/>
          <path class="cls-1" d="M968.02,609.79c1.56-1.56,1.56-4.1,0-5.66s-4.1-1.56-5.66,0-1.56,4.09,0,5.66,4.09,1.56,5.66,0Z"/>
          <path class="cls-1" d="M1007.7,567.85c.94-.94,.94-2.46,0-3.39s-2.46-.94-3.4,0-.94,2.46,0,3.39,2.46,.94,3.39,0Z"/>
          <path class="cls-1" d="M1047.37,525.91c.31-.31,.31-.82,0-1.13s-.82-.31-1.13,0-.31,.82,0,1.13,.82,.31,1.13,0Z"/>
          <circle class="cls-1" cx="557.13" cy="1096.64" r="17.92"/>
          <circle class="cls-1" cx="597.94" cy="1055.83" r="17.12"/>
          <path class="cls-1" d="M650.17,1026.45c6.31-6.31,6.31-16.55,0-22.86-6.31-6.31-16.55-6.31-22.86,0s-6.31,16.55,0,22.86c6.31,6.31,16.54,6.31,22.86,0Z"/>
          <path class="cls-1" d="M690.18,984.85c5.87-5.87,5.88-15.4,0-21.27-5.87-5.87-15.4-5.87-21.27,0s-5.87,15.4,0,21.27,15.4,5.87,21.27,0Z"/>
          <circle class="cls-1" cx="720.36" cy="933.41" r="13.76"/>
          <circle class="cls-1" cx="761.16" cy="892.61" r="12.48"/>
          <circle class="cls-1" cx="801.97" cy="851.8" r="11.04"/>
          <circle class="cls-1" cx="842.78" cy="810.99" r="9.6"/>
          <path class="cls-1" d="M889.35,775.96c3.19-3.19,3.19-8.35,0-11.54-3.19-3.19-8.36-3.19-11.54,0s-3.19,8.35,0,11.54,8.35,3.19,11.54,0Z"/>
          <path class="cls-1" d="M929.03,734.02c2.56-2.56,2.56-6.72,0-9.28s-6.72-2.56-9.28,0-2.56,6.72,0,9.28,6.72,2.56,9.28,0Z"/>
          <path class="cls-1" d="M968.82,692.19c2-2,2-5.24,0-7.24s-5.24-2-7.24,0-2,5.24,0,7.24,5.24,2,7.24,0Z"/>
          <path class="cls-1" d="M1008.49,650.26c1.38-1.38,1.37-3.61,0-4.98s-3.6-1.38-4.98,0-1.37,3.6,0,4.98,3.6,1.38,4.98,0Z"/>
          <circle class="cls-1" cx="1046.81" cy="606.96" r="1.92"/>
          <path class="cls-1" d="M1087.84,566.38c.13-.13,.13-.33,0-.45s-.33-.12-.45,0-.13,.33,0,.45,.33,.12,.45,0Z"/>
          <circle class="cls-1" cx="679.55" cy="1055.83" r="14.88"/>
          <circle class="cls-1" cx="720.36" cy="1015.03" r="13.76"/>
          <circle class="cls-1" cx="761.16" cy="974.22" r="12.64"/>
          <circle class="cls-1" cx="801.97" cy="933.41" r="11.36"/>
          <path class="cls-1" d="M849.9,899.73c3.94-3.94,3.94-10.32,0-14.26s-10.32-3.94-14.26,0-3.94,10.32,0,14.26,10.32,3.94,14.26,0Z"/>
          <path class="cls-1" d="M889.69,857.91c3.38-3.38,3.38-8.85,0-12.22s-8.85-3.37-12.22,0-3.38,8.85,0,12.22,8.85,3.37,12.22,0Z"/>
          <path class="cls-1" d="M929.59,816.2c2.87-2.87,2.87-7.54,0-10.41s-7.54-2.87-10.41,0-2.87,7.54,0,10.41,7.54,2.88,10.41,0Z"/>
          <path class="cls-1" d="M969.38,774.37c2.31-2.31,2.31-6.06,0-8.37s-6.06-2.31-8.37,0-2.31,6.06,0,8.37,6.06,2.31,8.37,0Z"/>
          <path class="cls-1" d="M1009.06,732.43c1.69-1.69,1.69-4.42,0-6.11s-4.42-1.69-6.11,0-1.69,4.42,0,6.11,4.42,1.69,6.11,0Z"/>
          <path class="cls-1" d="M1048.73,690.5c1.06-1.06,1.06-2.79,0-3.85s-2.79-1.06-3.85,0-1.06,2.78,0,3.85,2.78,1.06,3.85,0Z"/>
          <path class="cls-1" d="M1088.52,648.67c.5-.5,.5-1.31,0-1.81s-1.31-.5-1.81,0-.5,1.31,0,1.81,1.31,.5,1.81,0Z"/>
          <path class="cls-1" d="M1128.53,607.07c.06-.06,.06-.16,0-.23s-.16-.06-.23,0-.06,.16,0,.23,.16,.06,.23,0Z"/>
          <circle class="cls-1" cx="761.16" cy="1055.83" r="12.48"/>
          <circle class="cls-1" cx="801.97" cy="1015.03" r="11.36"/>
          <circle class="cls-1" cx="842.78" cy="974.22" r="10.24"/>
          <path class="cls-1" d="M889.92,939.75c3.5-3.5,3.5-9.17,0-12.67s-9.17-3.5-12.67,0c-3.5,3.5-3.5,9.17,0,12.67s9.17,3.5,12.67,0Z"/>
          <circle class="cls-1" cx="924.39" cy="892.61" r="7.68"/>
          <circle class="cls-1" cx="965.2" cy="851.8" r="6.4"/>
          <circle class="cls-1" cx="1006" cy="810.99" r="4.96"/>
          <path class="cls-1" d="M1049.3,772.68c1.38-1.38,1.38-3.6,0-4.98s-3.6-1.38-4.98,0-1.37,3.6,0,4.98,3.6,1.38,4.98,0Z"/>
          <path class="cls-1" d="M1089.09,730.85c.81-.81,.81-2.13,0-2.94s-2.13-.81-2.94,0-.81,2.13,0,2.94,2.13,.81,2.94,0Z"/>
          <path class="cls-1" d="M1128.87,689.02c.25-.25,.25-.66,0-.91s-.66-.25-.91,0-.25,.65,0,.9,.66,.25,.9,0Z"/>
          <path class="cls-1" d="M849.9,1062.96c3.94-3.94,3.94-10.32,0-14.26s-10.32-3.94-14.26,0-3.94,10.32,0,14.26,10.32,3.94,14.26,0Z"/>
          <path class="cls-1" d="M889.92,1021.36c3.5-3.5,3.5-9.17,0-12.67s-9.17-3.5-12.67,0-3.5,9.17,0,12.67c3.5,3.5,9.17,3.5,12.67,0Z"/>
          <path class="cls-1" d="M929.93,979.76c3.06-3.06,3.06-8.03,0-11.09s-8.03-3.06-11.09,0-3.06,8.03,0,11.09,8.03,3.06,11.09,0Z"/>
          <path class="cls-1" d="M969.95,938.16c2.63-2.63,2.63-6.88,0-9.51-2.62-2.62-6.88-2.62-9.51,0s-2.62,6.88,0,9.5,6.88,2.62,9.5,0Z"/>
          <path class="cls-1" d="M1009.85,896.45c2.12-2.12,2.12-5.57,0-7.7s-5.57-2.12-7.7,0-2.12,5.57,0,7.69,5.57,2.13,7.69,0Z"/>
          <path class="cls-1" d="M1049.64,854.63c1.56-1.56,1.56-4.1,0-5.66s-4.1-1.56-5.66,0-1.56,4.1,0,5.66,4.09,1.56,5.66,0Z"/>
          <path class="cls-1" d="M1089.43,812.8c1-1,1-2.62,0-3.62s-2.62-1-3.62,0-1,2.62,0,3.62,2.62,1,3.62,0Z"/>
          <path class="cls-1" d="M1129.33,771.09c.5-.5,.5-1.31,0-1.81s-1.31-.5-1.81,0-.5,1.31,0,1.81,1.31,.5,1.81,0Z"/>
          <path class="cls-1" d="M1169.34,729.49c.06-.06,.06-.16,0-.23s-.16-.06-.23,0-.06,.16,0,.23,.16,.06,.23,0Z"/>
          <circle class="cls-1" cx="924.39" cy="1055.83" r="7.68"/>
          <path class="cls-1" d="M969.95,1019.78c2.63-2.63,2.63-6.88,0-9.51s-6.88-2.62-9.51,0-2.62,6.88,0,9.5,6.88,2.62,9.5,0Z"/>
          <path class="cls-1" d="M1009.85,978.07c2.12-2.12,2.12-5.57,0-7.7s-5.57-2.12-7.7,0-2.12,5.57,0,7.69,5.57,2.13,7.69,0Z"/>
          <path class="cls-1" d="M1049.86,936.47c1.69-1.69,1.69-4.42,0-6.11s-4.42-1.69-6.11,0-1.69,4.42,0,6.11,4.42,1.69,6.11,0Z"/>
          <circle class="cls-1" cx="1087.62" cy="892.61" r="3.04"/>
          <path class="cls-1" d="M1129.55,852.93c.63-.63,.62-1.64,0-2.26s-1.64-.63-2.26,0-.62,1.64,0,2.26,1.64,.63,2.26,0Z"/>
          <path class="cls-1" d="M1169.45,811.22c.13-.13,.13-.33,0-.45s-.33-.12-.45,0-.13,.33,0,.45,.33,.12,.45,0Z"/>
          <circle class="cls-1" cx="1006" cy="1055.83" r="5.44"/>
          <path class="cls-1" d="M1049.86,1018.08c1.69-1.69,1.69-4.42,0-6.11s-4.42-1.69-6.11,0-1.69,4.42,0,6.11,4.42,1.69,6.11,0Z"/>
          <circle class="cls-1" cx="1087.62" cy="974.22" r="3.04"/>
          <circle class="cls-1" cx="1128.42" cy="933.41" r="1.92"/>
          <path class="cls-1" d="M1169.68,893.06c.25-.25,.25-.66,0-.91s-.66-.25-.91,0-.25,.65,0,.9,.66,.25,.9,0Z"/>
          <circle class="cls-1" cx="1087.62" cy="1055.83" r="3.04"/>
          <circle class="cls-1" cx="1128.42" cy="1015.03" r="1.92"/>
          <path class="cls-1" d="M1169.68,974.67c.25-.25,.25-.66,0-.91s-.66-.25-.91,0-.25,.65,0,.9,.66,.25,.9,0Z"/>
          <path class="cls-1" d="M1169.68,1056.28c.25-.25,.25-.66,0-.91s-.66-.25-.91,0-.25,.65,0,.9,.66,.25,.9,0Z"/>
        </g>
        <g class="cls-7">
          <path class="cls-1" d="M842.53,24.08c.12-.12,.13-.33,0-.45s-.33-.12-.45,0-.13,.33,0,.45,.33,.12,.45,0Z"/>
          <path class="cls-1" d="M842.64,105.8c.19-.19,.19-.49,0-.68s-.49-.19-.68,0-.19,.49,0,.68,.49,.19,.68,0Z"/>
          <path class="cls-1" d="M884.13,65.68c.56-.56,.56-1.47,0-2.04s-1.47-.56-2.04,0-.56,1.48,0,2.04,1.47,.56,2.04,0Z"/>
          <path class="cls-1" d="M925.61,25.55c.94-.94,.94-2.46,0-3.39s-2.46-.94-3.39,0-.94,2.46,0,3.4,2.46,.94,3.4,0Z"/>
          <path class="cls-1" d="M842.75,187.53c.25-.25,.25-.66,0-.91s-.66-.25-.91,0-.25,.65,0,.9,.66,.25,.91,0Z"/>
          <path class="cls-1" d="M884.35,147.52c.69-.69,.69-1.8,0-2.49s-1.8-.69-2.49,0-.69,1.8,0,2.49,1.8,.69,2.49,0Z"/>
          <path class="cls-1" d="M925.84,107.39c1.06-1.06,1.06-2.78,0-3.85s-2.79-1.06-3.85,0-1.06,2.79,0,3.85,2.79,1.06,3.85,0Z"/>
          <path class="cls-1" d="M967.44,67.37c1.5-1.5,1.5-3.93,0-5.43s-3.93-1.5-5.43,0-1.5,3.93,0,5.43,3.93,1.5,5.43,0Z"/>
          <path class="cls-1" d="M1008.92,27.25c1.87-1.87,1.87-4.91,0-6.79s-4.91-1.87-6.79,0-1.88,4.91,0,6.79,4.91,1.88,6.79,0Z"/>
          <path class="cls-1" d="M842.64,269.03c.19-.19,.19-.49,0-.68s-.49-.19-.68,0-.19,.49,0,.68,.49,.19,.68,0Z"/>
          <path class="cls-1" d="M884.35,229.13c.69-.69,.69-1.8,0-2.49s-1.8-.69-2.49,0-.69,1.8,0,2.49,1.8,.69,2.49,0Z"/>
          <path class="cls-1" d="M925.95,189.12c1.13-1.13,1.13-2.95,0-4.07s-2.95-1.12-4.07,0-1.13,2.95,0,4.07,2.95,1.13,4.07,0Z"/>
          <path class="cls-1" d="M967.55,149.1c1.56-1.56,1.56-4.09,0-5.66s-4.09-1.56-5.66,0-1.56,4.1,0,5.66,4.1,1.56,5.66,0Z"/>
          <path class="cls-1" d="M1009.15,109.09c2-2,2-5.24,0-7.24s-5.24-2-7.24,0-2,5.24,0,7.24,5.24,2,7.24,0Z"/>
          <path class="cls-1" d="M1050.75,69.07c2.44-2.44,2.44-6.39,0-8.83s-6.39-2.44-8.82,0-2.44,6.39,0,8.83,6.39,2.44,8.83,0Z"/>
          <path class="cls-1" d="M1092.12,28.83c2.75-2.75,2.75-7.21,0-9.96-2.75-2.75-7.21-2.75-9.96,0s-2.75,7.21,0,9.96,7.21,2.75,9.96,0Z"/>
          <path class="cls-1" d="M842.53,350.53c.13-.13,.13-.33,0-.45s-.33-.12-.45,0-.13,.33,0,.45,.33,.13,.45,0Z"/>
          <path class="cls-1" d="M884.13,310.52c.56-.56,.56-1.48,0-2.04s-1.47-.56-2.04,0-.56,1.47,0,2.04,1.48,.56,2.04,0Z"/>
          <path class="cls-1" d="M925.84,270.61c1.06-1.06,1.06-2.79,0-3.85s-2.79-1.06-3.85,0-1.06,2.78,0,3.85,2.79,1.06,3.85,0Z"/>
          <path class="cls-1" d="M967.55,230.71c1.56-1.56,1.56-4.1,0-5.66s-4.09-1.56-5.66,0-1.56,4.09,0,5.66,4.1,1.56,5.66,0Z"/>
          <path class="cls-1" d="M1009.26,190.81c2.06-2.06,2.06-5.41,0-7.47s-5.41-2.06-7.47,0-2.06,5.41,0,7.47,5.41,2.06,7.47,0Z"/>
          <path class="cls-1" d="M1050.86,150.8c2.5-2.5,2.5-6.55,0-9.05s-6.55-2.5-9.05,0-2.5,6.55,0,9.05,6.55,2.5,9.05,0Z"/>
          <path class="cls-1" d="M1092.46,110.78c2.94-2.94,2.94-7.7,0-10.64s-7.7-2.94-10.64,0c-2.94,2.94-2.94,7.7,0,10.64,2.94,2.94,7.7,2.94,10.64,0Z"/>
          <path class="cls-1" d="M1133.95,70.65c3.31-3.31,3.31-8.68,0-11.99-3.31-3.31-8.68-3.31-11.99,0s-3.31,8.68,0,11.99,8.68,3.31,12,0Z"/>
          <path class="cls-1" d="M1175.43,30.53c3.69-3.69,3.69-9.66,0-13.35-3.69-3.69-9.67-3.69-13.35,0-3.69,3.69-3.69,9.67,0,13.35,3.69,3.69,9.67,3.69,13.35,0Z"/>
          <path class="cls-1" d="M883.79,391.79c.38-.38,.38-.98,0-1.36s-.98-.37-1.36,0-.37,.98,0,1.36,.98,.38,1.36,0Z"/>
          <path class="cls-1" d="M925.61,352c.94-.94,.94-2.46,0-3.4s-2.46-.94-3.39,0-.94,2.46,0,3.39,2.46,.94,3.39,0Z"/>
          <path class="cls-1" d="M967.44,312.21c1.5-1.5,1.5-3.93,0-5.43s-3.93-1.5-5.43,0-1.5,3.93,0,5.43,3.93,1.5,5.43,0Z"/>
          <path class="cls-1" d="M1009.15,272.31c2-2,2-5.24,0-7.24s-5.24-2-7.24,0-2,5.24,0,7.24,5.24,2,7.24,0Z"/>
          <path class="cls-1" d="M1050.86,232.41c2.5-2.5,2.5-6.55,0-9.05s-6.55-2.5-9.05,0-2.5,6.55,0,9.05,6.55,2.5,9.05,0Z"/>
          <path class="cls-1" d="M1092.57,192.51c3-3,3-7.86,0-10.86-3-3-7.86-3-10.86,0s-3,7.86,0,10.86c3,3,7.86,3,10.86,0Z"/>
          <path class="cls-1" d="M1134.17,152.49c3.44-3.44,3.44-9.01,0-12.45s-9.01-3.44-12.45,0c-3.44,3.44-3.44,9.01,0,12.45s9.01,3.44,12.45,0Z"/>
          <circle class="cls-1" cx="1168.76" cy="105.46" r="9.92"/>
          <path class="cls-1" d="M1217.26,72.35c4.25-4.25,4.25-11.14,0-15.39s-11.14-4.25-15.39,0-4.25,11.14,0,15.39,11.14,4.25,15.39,0Z"/>
          <path class="cls-1" d="M1258.63,32.11c4.56-4.56,4.56-11.96,0-16.52-4.56-4.56-11.96-4.56-16.52,0s-4.56,11.96,0,16.52,11.96,4.56,16.52,0Z"/>
          <path class="cls-1" d="M883.45,473.06c.19-.19,.19-.49,0-.68s-.49-.19-.68,0-.19,.49,0,.68,.49,.19,.68,0Z"/>
          <circle class="cls-1" cx="923.91" cy="431.92" r="1.92"/>
          <path class="cls-1" d="M967.1,393.49c1.31-1.31,1.31-3.44,0-4.75s-3.44-1.31-4.75,0-1.31,3.44,0,4.75,3.44,1.31,4.75,0Z"/>
          <path class="cls-1" d="M1008.92,353.7c1.88-1.88,1.87-4.92,0-6.79s-4.91-1.87-6.79,0-1.87,4.91,0,6.79,4.91,1.88,6.79,0Z"/>
          <path class="cls-1" d="M1050.75,313.91c2.44-2.44,2.44-6.39,0-8.83s-6.39-2.44-8.83,0-2.44,6.39,0,8.82,6.39,2.44,8.83,0Z"/>
          <path class="cls-1" d="M1092.46,274.01c2.94-2.94,2.94-7.7,0-10.64-2.94-2.94-7.7-2.94-10.64,0s-2.94,7.7,0,10.64,7.7,2.94,10.64,0Z"/>
          <path class="cls-1" d="M1134.17,234.11c3.44-3.44,3.44-9.01,0-12.45-3.44-3.44-9.01-3.44-12.45,0s-3.44,9.01,0,12.45,9.01,3.44,12.45,0Z"/>
          <path class="cls-1" d="M1175.88,194.21c3.94-3.94,3.94-10.32,0-14.26s-10.32-3.94-14.26,0c-3.94,3.94-3.94,10.32,0,14.26s10.32,3.94,14.26,0Z"/>
          <path class="cls-1" d="M1217.48,154.19c4.37-4.37,4.37-11.47,0-15.84s-11.47-4.37-15.84,0c-4.37,4.37-4.37,11.47,0,15.84s11.47,4.37,15.84,0Z"/>
          <circle class="cls-1" cx="1250.37" cy="105.46" r="12.16"/>
          <path class="cls-1" d="M1300.45,73.94c5.12-5.12,5.12-13.43,0-18.56-5.12-5.12-13.43-5.12-18.56,0s-5.12,13.43,0,18.56c5.12,5.12,13.43,5.12,18.56,0Z"/>
          <path class="cls-1" d="M1341.83,33.7c5.44-5.44,5.44-14.25,0-19.69s-14.25-5.44-19.69,0c-5.44,5.44-5.44,14.25,0,19.69s14.25,5.44,19.69,0Z"/>
          <circle class="cls-1" cx="923.91" cy="513.53" r="1.12"/>
          <path class="cls-1" d="M966.53,474.54c1-1,1-2.62,0-3.62s-2.62-1-3.62,0-1,2.62,0,3.62,2.62,1,3.62,0Z"/>
          <circle class="cls-1" cx="1005.53" cy="431.92" r="4.16"/>
          <path class="cls-1" d="M1050.3,395.07c2.19-2.19,2.19-5.73,0-7.92s-5.73-2.19-7.92,0-2.19,5.73,0,7.92,5.73,2.19,7.92,0Z"/>
          <path class="cls-1" d="M1092.12,355.28c2.75-2.75,2.75-7.21,0-9.96s-7.21-2.75-9.96,0-2.75,7.21,0,9.96,7.21,2.75,9.96,0Z"/>
          <path class="cls-1" d="M1133.95,315.49c3.31-3.31,3.31-8.68,0-11.99s-8.68-3.31-11.99,0c-3.31,3.31-3.31,8.68,0,11.99s8.68,3.31,12,0Z"/>
          <path class="cls-1" d="M1175.77,275.71c3.87-3.87,3.87-10.15,0-14.03s-10.16-3.88-14.03,0-3.87,10.16,0,14.03,10.16,3.88,14.03,0Z"/>
          <path class="cls-1" d="M1217.48,235.8c4.37-4.37,4.37-11.47,0-15.84-4.37-4.37-11.47-4.37-15.84,0s-4.37,11.47,0,15.84,11.47,4.37,15.84,0Z"/>
          <path class="cls-1" d="M1259.2,195.9c4.87-4.87,4.87-12.78,0-17.65s-12.78-4.87-17.65,0-4.88,12.78,0,17.65c4.88,4.88,12.78,4.87,17.65,0Z"/>
          <path class="cls-1" d="M1300.79,155.89c5.31-5.31,5.31-13.92,0-19.24s-13.92-5.31-19.24,0-5.31,13.93,0,19.24,13.93,5.31,19.24,0Z"/>
          <path class="cls-1" d="M1342.28,115.76c5.69-5.69,5.69-14.91,0-20.59s-14.91-5.69-20.59,0c-5.69,5.69-5.69,14.91,0,20.59s14.91,5.69,20.59,0Z"/>
          <path class="cls-1" d="M1383.77,75.63c6.06-6.06,6.06-15.89,0-21.95-6.06-6.06-15.89-6.06-21.95,0s-6.06,15.89,0,21.95c6.06,6.06,15.89,6.06,21.95,0Z"/>
          <path class="cls-1" d="M1425.02,35.28c6.31-6.31,6.31-16.55,0-22.86-6.31-6.31-16.55-6.31-22.86,0-6.31,6.31-6.31,16.55,0,22.86,6.31,6.31,16.55,6.31,22.86,0Z"/>
          <path class="cls-1" d="M924.14,595.37c.13-.13,.12-.33,0-.45s-.33-.13-.45,0-.12,.33,0,.45,.33,.13,.45,0Z"/>
          <path class="cls-1" d="M965.97,555.58c.69-.69,.69-1.8,0-2.49s-1.8-.69-2.49,0-.69,1.8,0,2.49,1.8,.69,2.49,0Z"/>
          <path class="cls-1" d="M1007.79,515.79c1.25-1.25,1.25-3.28,0-4.53s-3.28-1.25-4.53,0-1.25,3.28,0,4.53,3.28,1.25,4.53,0Z"/>
          <path class="cls-1" d="M1049.73,476.12c1.88-1.88,1.88-4.91,0-6.79s-4.91-1.87-6.79,0-1.87,4.91,0,6.79,4.91,1.88,6.79,0Z"/>
          <path class="cls-1" d="M1091.67,436.44c2.5-2.5,2.5-6.55,0-9.05s-6.55-2.5-9.05,0-2.5,6.55,0,9.05,6.55,2.5,9.05,0Z"/>
          <path class="cls-1" d="M1133.49,396.66c3.06-3.06,3.06-8.03,0-11.09s-8.03-3.06-11.09,0-3.06,8.03,0,11.09,8.03,3.06,11.09,0Z"/>
          <path class="cls-1" d="M1175.43,356.98c3.69-3.69,3.69-9.67,0-13.35s-9.67-3.69-13.35,0c-3.69,3.69-3.69,9.67,0,13.35s9.67,3.69,13.35,0Z"/>
          <path class="cls-1" d="M1217.26,317.19c4.25-4.25,4.25-11.14,0-15.39s-11.14-4.25-15.39,0-4.25,11.14,0,15.39,11.14,4.25,15.39,0Z"/>
          <circle class="cls-1" cx="1250.37" cy="268.69" r="12.16"/>
          <path class="cls-1" d="M1300.79,237.5c5.31-5.31,5.31-13.92,0-19.24-5.31-5.31-13.92-5.31-19.24,0-5.31,5.31-5.31,13.93,0,19.24s13.93,5.31,19.24,0Z"/>
          <path class="cls-1" d="M1342.51,197.6c5.81-5.81,5.81-15.23,0-21.05s-15.23-5.81-21.05,0c-5.81,5.81-5.81,15.23,0,21.05s15.24,5.81,21.05,0Z"/>
          <circle class="cls-1" cx="1372.79" cy="146.27" r="16"/>
          <path class="cls-1" d="M1425.59,117.46c6.62-6.62,6.62-17.36,0-23.99s-17.36-6.62-23.99,0c-6.62,6.62-6.62,17.37,0,23.99s17.37,6.62,23.99,0Z"/>
          <path class="cls-1" d="M1466.85,77.1c6.87-6.87,6.88-18.02,0-24.89-6.87-6.87-18.02-6.87-24.89,0s-6.88,18.02,0,24.89c6.88,6.88,18.02,6.87,24.89,0Z"/>
          <path class="cls-1" d="M1508.11,36.75c7.12-7.12,7.12-18.68,0-25.8-7.12-7.12-18.67-7.12-25.8,0-7.12,7.12-7.12,18.68,0,25.8,7.12,7.12,18.68,7.13,25.8,0Z"/>
          <path class="cls-1" d="M1549.03-3.94c7.19-7.19,7.19-18.84,0-26.03-7.19-7.19-18.84-7.19-26.03,0s-7.19,18.84,0,26.03c7.19,7.19,18.84,7.19,26.03,0Z"/>
          <path class="cls-1" d="M965.17,636.4c.25-.25,.25-.66,0-.91s-.66-.25-.91,0-.25,.66,0,.9,.66,.25,.91,0Z"/>
          <path class="cls-1" d="M1007.11,596.73c.87-.87,.87-2.29,0-3.17s-2.29-.87-3.17,0-.87,2.29,0,3.17,2.29,.88,3.17,0Z"/>
          <path class="cls-1" d="M1049.05,557.05c1.5-1.5,1.5-3.93,0-5.43s-3.93-1.5-5.43,0-1.5,3.93,0,5.43,3.93,1.5,5.43,0Z"/>
          <path class="cls-1" d="M1090.99,517.38c2.12-2.12,2.12-5.57,0-7.7s-5.57-2.12-7.69,0-2.12,5.57,0,7.69,5.57,2.12,7.69,0Z"/>
          <path class="cls-1" d="M1132.93,477.7c2.75-2.75,2.75-7.21,0-9.96s-7.21-2.75-9.96,0-2.75,7.21,0,9.96,7.21,2.75,9.96,0Z"/>
          <path class="cls-1" d="M1174.87,438.03c3.38-3.38,3.38-8.85,0-12.22-3.37-3.37-8.85-3.37-12.22,0-3.37,3.37-3.37,8.85,0,12.22s8.85,3.38,12.22,0Z"/>
          <path class="cls-1" d="M1216.69,398.24c3.94-3.94,3.94-10.32,0-14.26-3.94-3.94-10.32-3.94-14.26,0s-3.94,10.32,0,14.26,10.32,3.94,14.26,0Z"/>
          <path class="cls-1" d="M1258.63,358.56c4.56-4.56,4.56-11.96,0-16.52-4.56-4.56-11.96-4.56-16.52,0-4.56,4.56-4.56,11.96,0,16.52s11.96,4.56,16.52,0Z"/>
          <path class="cls-1" d="M1300.45,318.78c5.12-5.12,5.12-13.43,0-18.56s-13.43-5.12-18.56,0-5.12,13.43,0,18.56,13.43,5.12,18.56,0Z"/>
          <path class="cls-1" d="M1342.28,278.99c5.69-5.69,5.69-14.91,0-20.59-5.69-5.69-14.91-5.69-20.59,0-5.69,5.69-5.69,14.91,0,20.59s14.91,5.69,20.59,0Z"/>
          <path class="cls-1" d="M1384.1,239.2c6.25-6.25,6.25-16.38,0-22.63-6.25-6.25-16.38-6.25-22.63,0s-6.25,16.38,0,22.63c6.25,6.25,16.38,6.25,22.63,0Z"/>
          <path class="cls-1" d="M1425.82,199.3c6.75-6.75,6.75-17.69,0-24.44-6.75-6.75-17.69-6.75-24.44,0-6.75,6.75-6.75,17.69,0,24.44s17.69,6.75,24.44,0Z"/>
          <path class="cls-1" d="M1467.41,159.28c7.19-7.19,7.19-18.84,0-26.03-7.19-7.19-18.84-7.19-26.02,0-7.19,7.19-7.19,18.84,0,26.03s18.84,7.19,26.03,0Z"/>
          <path class="cls-1" d="M1508.79,119.04c7.5-7.5,7.5-19.66,0-27.16-7.5-7.5-19.66-7.5-27.16,0-7.5,7.5-7.5,19.66,0,27.16,7.5,7.5,19.66,7.5,27.16,0Z"/>
          <path class="cls-1" d="M1550.05,78.69c7.75-7.75,7.75-20.31,0-28.06-7.75-7.75-20.31-7.75-28.06,0s-7.75,20.31,0,28.06c7.75,7.75,20.31,7.75,28.06,0Z"/>
          <path class="cls-1" d="M1590.97,38c7.81-7.81,7.81-20.48,0-28.29-7.81-7.81-20.48-7.81-28.29,0-7.81,7.81-7.81,20.48,0,28.29s20.48,7.81,28.29,0Z"/>
          <path class="cls-1" d="M1631.66-2.92c7.75-7.75,7.75-20.31,0-28.06-7.75-7.75-20.31-7.75-28.06,0s-7.75,20.31,0,28.06c7.75,7.75,20.31,7.75,28.06,0Z"/>
          <path class="cls-1" d="M1006.21,677.44c.38-.38,.38-.98,0-1.36s-.98-.38-1.36,0-.37,.98,0,1.36,.98,.37,1.36,0Z"/>
          <path class="cls-1" d="M1048.15,637.76c1-1,1-2.62,0-3.62s-2.62-1-3.62,0-1,2.62,0,3.62,2.62,1,3.62,0Z"/>
          <path class="cls-1" d="M1090.2,598.2c1.69-1.69,1.69-4.42,0-6.11s-4.42-1.69-6.11,0-1.69,4.42,0,6.11,4.42,1.69,6.11,0Z"/>
          <path class="cls-1" d="M1132.13,558.52c2.31-2.31,2.31-6.06,0-8.37s-6.06-2.31-8.37,0-2.31,6.06,0,8.37,6.06,2.31,8.37,0Z"/>
          <path class="cls-1" d="M1174.07,518.85c2.94-2.94,2.94-7.7,0-10.64s-7.7-2.94-10.64,0c-2.94,2.94-2.94,7.7,0,10.64s7.7,2.94,10.64,0Z"/>
          <path class="cls-1" d="M1216.01,479.18c3.56-3.56,3.56-9.34,0-12.9-3.56-3.56-9.34-3.56-12.9,0-3.56,3.56-3.56,9.34,0,12.9s9.34,3.56,12.9,0Z"/>
          <path class="cls-1" d="M1257.95,439.5c4.19-4.19,4.19-10.97,0-15.16s-10.98-4.19-15.16,0-4.19,10.98,0,15.16,10.97,4.19,15.16,0Z"/>
          <path class="cls-1" d="M1299.89,399.82c4.81-4.81,4.81-12.61,0-17.42s-12.61-4.81-17.43,0-4.81,12.61,0,17.43c4.81,4.81,12.61,4.81,17.43,0Z"/>
          <path class="cls-1" d="M1341.83,360.15c5.44-5.44,5.44-14.25,0-19.69-5.44-5.44-14.25-5.44-19.69,0s-5.44,14.25,0,19.69,14.25,5.44,19.69,0Z"/>
          <path class="cls-1" d="M1383.77,320.47c6.06-6.06,6.06-15.89,0-21.95s-15.89-6.06-21.95,0c-6.06,6.06-6.06,15.89,0,21.95,6.06,6.06,15.89,6.06,21.95,0Z"/>
          <path class="cls-1" d="M1425.59,280.69c6.62-6.62,6.62-17.36,0-23.99-6.62-6.62-17.37-6.62-23.99,0s-6.62,17.37,0,23.99c6.62,6.62,17.36,6.62,23.99,0Z"/>
          <path class="cls-1" d="M1467.41,240.9c7.19-7.19,7.19-18.84,0-26.02-7.19-7.19-18.84-7.19-26.03,0-7.19,7.19-7.19,18.84,0,26.03s18.84,7.19,26.03,0Z"/>
          <path class="cls-1" d="M1509.01,200.88c7.62-7.62,7.62-19.98,0-27.61-7.62-7.62-19.99-7.62-27.61,0-7.62,7.62-7.62,19.99,0,27.61s19.98,7.62,27.61,0Z"/>
          <path class="cls-1" d="M1550.61,160.87c8.06-8.06,8.06-21.13,0-29.19-8.06-8.06-21.13-8.06-29.19,0-8.06,8.06-8.06,21.13,0,29.19s21.13,8.06,29.19,0Z"/>
          <path class="cls-1" d="M1591.98,120.63c8.37-8.37,8.37-21.95,0-30.32s-21.95-8.37-30.33,0-8.37,21.95,0,30.33c8.37,8.37,21.95,8.37,30.33,0Z"/>
          <path class="cls-1" d="M1633.02,80.05c8.5-8.5,8.5-22.28,0-30.78-8.5-8.5-22.28-8.5-30.78,0-8.5,8.5-8.5,22.28,0,30.78s22.28,8.5,30.78,0Z"/>
          <path class="cls-1" d="M1673.6,39.01c8.37-8.37,8.37-21.95,0-30.33-8.37-8.37-21.95-8.37-30.33,0-8.37,8.37-8.37,21.95,0,30.33,8.37,8.37,21.95,8.37,30.33,0Z"/>
          <path class="cls-1" d="M1713.95-2.25c8.12-8.12,8.12-21.3,0-29.42s-21.3-8.13-29.42,0c-8.12,8.12-8.12,21.3,0,29.42,8.12,8.12,21.3,8.12,29.42,0Z"/>
          <path class="cls-1" d="M1047.24,718.47c.5-.5,.5-1.31,0-1.81s-1.31-.5-1.81,0-.5,1.31,0,1.81,1.31,.5,1.81,0Z"/>
          <path class="cls-1" d="M1089.18,678.79c1.13-1.13,1.13-2.95,0-4.07s-2.95-1.13-4.07,0-1.12,2.95,0,4.07,2.95,1.13,4.07,0Z"/>
          <path class="cls-1" d="M1131.23,639.23c1.81-1.81,1.81-4.75,0-6.56s-4.75-1.81-6.56,0-1.81,4.75,0,6.56,4.75,1.81,6.56,0Z"/>
          <path class="cls-1" d="M1173.17,599.56c2.44-2.44,2.44-6.39,0-8.83s-6.39-2.44-8.83,0-2.44,6.39,0,8.83,6.39,2.44,8.82,0Z"/>
          <path class="cls-1" d="M1215.11,559.88c3.06-3.06,3.06-8.03,0-11.09s-8.03-3.06-11.09,0c-3.06,3.06-3.06,8.03,0,11.09,3.06,3.06,8.03,3.06,11.09,0Z"/>
          <path class="cls-1" d="M1257.16,520.32c3.75-3.75,3.75-9.83,0-13.58s-9.83-3.75-13.58,0-3.75,9.83,0,13.58,9.83,3.75,13.58,0Z"/>
          <path class="cls-1" d="M1299.1,480.64c4.37-4.37,4.37-11.47,0-15.84s-11.47-4.37-15.84,0-4.37,11.47,0,15.84c4.37,4.37,11.47,4.37,15.84,0Z"/>
          <path class="cls-1" d="M1341.03,440.97c5-5,5-13.1,0-18.1s-13.11-5-18.11,0-5,13.11,0,18.11,13.11,5,18.11,0Z"/>
          <path class="cls-1" d="M1383.09,401.41c5.69-5.69,5.69-14.91,0-20.59-5.69-5.69-14.91-5.69-20.59,0-5.69,5.69-5.69,14.91,0,20.59,5.69,5.69,14.91,5.69,20.59,0Z"/>
          <path class="cls-1" d="M1425.02,361.73c6.31-6.31,6.31-16.55,0-22.86s-16.55-6.31-22.86,0c-6.31,6.31-6.31,16.55,0,22.86,6.31,6.31,16.55,6.31,22.86,0Z"/>
          <path class="cls-1" d="M1466.85,321.94c6.87-6.87,6.87-18.02,0-24.89s-18.02-6.88-24.89,0c-6.87,6.87-6.88,18.02,0,24.89,6.87,6.87,18.02,6.87,24.89,0Z"/>
          <path class="cls-1" d="M1508.79,282.27c7.5-7.5,7.5-19.66,0-27.16s-19.66-7.5-27.16,0c-7.5,7.5-7.5,19.66,0,27.16,7.5,7.5,19.66,7.5,27.16,0Z"/>
          <path class="cls-1" d="M1550.61,242.48c8.06-8.06,8.06-21.13,0-29.19s-21.13-8.06-29.19,0-8.06,21.13,0,29.19c8.06,8.06,21.13,8.06,29.19,0Z"/>
          <path class="cls-1" d="M1592.32,202.58c8.56-8.56,8.56-22.44,0-31-8.56-8.56-22.44-8.56-31,0-8.56,8.56-8.56,22.44,0,31.01,8.56,8.56,22.44,8.56,31,0Z"/>
          <path class="cls-1" d="M1633.92,162.57c9-9,9-23.59,0-32.59-9-9-23.59-9-32.59,0-9,9-9,23.59,0,32.59,9,9,23.59,9,32.59,0Z"/>
          <path class="cls-1" d="M1674.96,121.98c9.12-9.12,9.12-23.92,0-33.04-9.12-9.12-23.92-9.13-33.04,0-9.12,9.12-9.12,23.92,0,33.04,9.12,9.12,23.92,9.12,33.04,0Z"/>
          <path class="cls-1" d="M1715.54,80.95c9-9,9-23.59,0-32.59-9-9-23.59-9-32.59,0-9,9-9,23.59,0,32.59,9,9,23.59,9,32.59,0Z"/>
          <circle class="cls-1" cx="1740.05" cy="23.85" r="22.08"/>
          <path class="cls-1" d="M1795.57-2.25c8.12-8.12,8.12-21.3,0-29.42-8.12-8.12-21.3-8.13-29.42,0s-8.12,21.3,0,29.42,21.3,8.12,29.42,0Z"/>
          <path class="cls-1" d="M1046.45,799.29c.06-.06,.06-.16,0-.23s-.16-.06-.23,0-.06,.16,0,.23,.16,.06,.23,0Z"/>
          <path class="cls-1" d="M1088.16,759.39c.56-.56,.56-1.47,0-2.04s-1.47-.56-2.04,0-.56,1.47,0,2.04,1.47,.56,2.04,0Z"/>
          <circle class="cls-1" cx="1127.95" cy="717.57" r="3.04"/>
          <path class="cls-1" d="M1172.15,680.15c1.87-1.87,1.88-4.91,0-6.79s-4.92-1.87-6.79,0-1.87,4.91,0,6.79,4.91,1.87,6.79,0Z"/>
          <path class="cls-1" d="M1214.09,640.48c2.5-2.5,2.5-6.55,0-9.05s-6.55-2.5-9.05,0-2.5,6.55,0,9.05,6.55,2.5,9.05,0Z"/>
          <path class="cls-1" d="M1256.14,600.92c3.19-3.19,3.19-8.36,0-11.54s-8.36-3.19-11.54,0-3.19,8.35,0,11.54,8.35,3.19,11.54,0Z"/>
          <path class="cls-1" d="M1298.19,561.35c3.88-3.88,3.87-10.16,0-14.03s-10.16-3.88-14.03,0c-3.87,3.87-3.87,10.15,0,14.03s10.16,3.88,14.03,0Z"/>
          <path class="cls-1" d="M1340.13,521.68c4.5-4.5,4.5-11.79,0-16.29s-11.79-4.5-16.29,0-4.5,11.79,0,16.29,11.79,4.5,16.29,0Z"/>
          <path class="cls-1" d="M1382.07,482c5.12-5.12,5.12-13.43,0-18.56s-13.43-5.12-18.56,0-5.12,13.43,0,18.56,13.43,5.12,18.56,0Z"/>
          <path class="cls-1" d="M1424.12,442.44c5.81-5.81,5.81-15.23,0-21.05-5.81-5.81-15.23-5.81-21.05,0-5.81,5.81-5.81,15.23,0,21.05,5.81,5.81,15.23,5.81,21.05,0Z"/>
          <path class="cls-1" d="M1466.06,402.77c6.44-6.44,6.44-16.87,0-23.31-6.44-6.44-16.87-6.44-23.31,0-6.44,6.44-6.44,16.87,0,23.31,6.44,6.44,16.87,6.44,23.31,0Z"/>
          <circle class="cls-1" cx="1495.21" cy="350.3" r="18.24"/>
          <path class="cls-1" d="M1550.05,323.53c7.75-7.75,7.75-20.31,0-28.06-7.75-7.75-20.31-7.75-28.06,0s-7.75,20.31,0,28.06c7.75,7.75,20.31,7.75,28.06,0Z"/>
          <path class="cls-1" d="M1591.98,283.85c8.37-8.37,8.37-21.95,0-30.32s-21.95-8.37-30.33,0c-8.37,8.37-8.37,21.95,0,30.33,8.37,8.37,21.95,8.37,30.33,0Z"/>
          <path class="cls-1" d="M1633.92,244.18c9-9,9-23.59,0-32.59s-23.59-9-32.59,0c-9,9-9,23.59,0,32.59,9,9,23.59,9,32.59,0Z"/>
          <circle class="cls-1" cx="1658.44" cy="187.08" r="24.32"/>
          <path class="cls-1" d="M1716.89,163.92c9.75-9.75,9.75-25.55,0-35.3-9.75-9.75-25.56-9.75-35.3,0-9.75,9.75-9.75,25.56,0,35.31,9.75,9.75,25.56,9.75,35.3,0Z"/>
          <path class="cls-1" d="M1757.36,122.78c9.56-9.56,9.56-25.06,0-34.63-9.56-9.56-25.07-9.56-34.63,0-9.56,9.56-9.56,25.06,0,34.63,9.56,9.56,25.06,9.56,34.63,0Z"/>
          <circle class="cls-1" cx="1780.86" cy="64.66" r="23.2"/>
          <path class="cls-1" d="M1836.94,39.13c8.44-8.44,8.44-22.12,0-30.55s-22.12-8.44-30.55,0-8.44,22.12,0,30.55c8.44,8.44,22.11,8.44,30.55,0Z"/>
          <path class="cls-1" d="M1876.61-2.81c7.81-7.81,7.81-20.48,0-28.29s-20.48-7.81-28.29,0c-7.81,7.81-7.81,20.48,0,28.29,7.81,7.81,20.48,7.81,28.29,0Z"/>
          <path class="cls-1" d="M1087.25,840.1c.06-.06,.06-.16,0-.23s-.16-.06-.23,0-.06,.16,0,.23,.16,.06,.23,0Z"/>
          <path class="cls-1" d="M1128.97,800.2c.56-.56,.56-1.47,0-2.04s-1.47-.56-2.04,0-.56,1.47,0,2.04,1.47,.56,2.04,0Z"/>
          <path class="cls-1" d="M1171.02,760.63c1.25-1.25,1.25-3.28,0-4.53s-3.28-1.25-4.53,0-1.25,3.28,0,4.53,3.28,1.25,4.53,0Z"/>
          <path class="cls-1" d="M1212.96,720.96c1.87-1.87,1.88-4.91,0-6.79s-4.92-1.87-6.79,0-1.87,4.91,0,6.79,4.91,1.87,6.79,0Z"/>
          <path class="cls-1" d="M1255.01,681.4c2.56-2.56,2.56-6.72,0-9.28s-6.72-2.56-9.28,0-2.56,6.72,0,9.28,6.72,2.56,9.28,0Z"/>
          <path class="cls-1" d="M1296.95,641.72c3.19-3.19,3.19-8.36,0-11.54s-8.36-3.19-11.54,0-3.19,8.35,0,11.54c3.19,3.19,8.35,3.19,11.54,0Z"/>
          <path class="cls-1" d="M1339,602.16c3.88-3.88,3.87-10.16,0-14.03-3.87-3.87-10.16-3.88-14.03,0s-3.87,10.16,0,14.03,10.16,3.88,14.03,0Z"/>
          <path class="cls-1" d="M1380.94,562.48c4.5-4.5,4.5-11.79,0-16.29-4.5-4.5-11.79-4.5-16.29,0-4.5,4.5-4.5,11.79,0,16.29,4.5,4.5,11.79,4.5,16.29,0Z"/>
          <path class="cls-1" d="M1422.99,522.92c5.19-5.19,5.19-13.6,0-18.78s-13.6-5.19-18.78,0-5.19,13.6,0,18.78,13.6,5.19,18.78,0Z"/>
          <path class="cls-1" d="M1465.04,483.36c5.87-5.87,5.87-15.4,0-21.27s-15.4-5.88-21.27,0-5.87,15.4,0,21.27c5.87,5.87,15.4,5.87,21.27,0Z"/>
          <path class="cls-1" d="M1506.98,443.69c6.5-6.5,6.5-17.04,0-23.54s-17.04-6.5-23.54,0c-6.5,6.5-6.5,17.04,0,23.54,6.5,6.5,17.04,6.5,23.54,0Z"/>
          <path class="cls-1" d="M1549.03,404.12c7.19-7.19,7.19-18.84,0-26.02-7.19-7.19-18.84-7.19-26.03,0s-7.19,18.84,0,26.03c7.19,7.19,18.84,7.19,26.03,0Z"/>
          <path class="cls-1" d="M1590.97,364.45c7.81-7.81,7.81-20.48,0-28.29-7.81-7.81-20.48-7.81-28.29,0-7.81,7.81-7.81,20.48,0,28.29s20.48,7.81,28.29,0Z"/>
          <path class="cls-1" d="M1633.02,324.89c8.5-8.5,8.5-22.28,0-30.78s-22.28-8.5-30.78,0c-8.5,8.5-8.5,22.28,0,30.78,8.5,8.5,22.28,8.5,30.78,0Z"/>
          <path class="cls-1" d="M1674.96,285.21c9.12-9.12,9.12-23.92,0-33.04-9.12-9.12-23.92-9.13-33.04,0-9.12,9.12-9.12,23.92,0,33.04s23.92,9.12,33.04,0Z"/>
          <path class="cls-1" d="M1716.89,245.54c9.75-9.75,9.75-25.55,0-35.3-9.75-9.75-25.56-9.75-35.3,0s-9.75,25.56,0,35.31c9.75,9.75,25.56,9.75,35.3,0Z"/>
          <circle class="cls-1" cx="1740.05" cy="187.08" r="26.24"/>
          <circle class="cls-1" cx="1780.86" cy="146.27" r="25.12"/>
          <path class="cls-1" d="M1838.3,122.1c9.19-9.19,9.19-24.08,0-33.27-9.19-9.19-24.08-9.19-33.27,0-9.19,9.19-9.19,24.08,0,33.27,9.19,9.19,24.08,9.19,33.27,0Z"/>
          <path class="cls-1" d="M1877.97,80.16c8.56-8.56,8.56-22.44,0-31-8.56-8.56-22.44-8.56-31,0s-8.56,22.44,0,31c8.56,8.56,22.44,8.56,31,0Z"/>
          <circle class="cls-1" cx="1903.28" cy="23.85" r="20.16"/>
          <path class="cls-1" d="M1128.06,880.9c.06-.06,.06-.16,0-.23s-.16-.06-.23,0-.06,.16,0,.23,.16,.06,.23,0Z"/>
          <path class="cls-1" d="M1169.77,841c.56-.56,.56-1.47,0-2.04s-1.47-.56-2.04,0-.56,1.47,0,2.04,1.47,.56,2.04,0Z"/>
          <circle class="cls-1" cx="1209.56" cy="799.18" r="3.04"/>
          <path class="cls-1" d="M1253.76,761.77c1.87-1.87,1.88-4.91,0-6.79s-4.92-1.87-6.79,0c-1.87,1.87-1.87,4.91,0,6.79s4.91,1.87,6.79,0Z"/>
          <path class="cls-1" d="M1295.81,722.2c2.56-2.56,2.56-6.72,0-9.28s-6.72-2.56-9.28,0-2.56,6.72,0,9.28,6.72,2.56,9.28,0Z"/>
          <path class="cls-1" d="M1337.75,682.53c3.19-3.19,3.19-8.36,0-11.54s-8.36-3.19-11.54,0-3.19,8.35,0,11.54,8.35,3.19,11.54,0Z"/>
          <path class="cls-1" d="M1379.8,642.97c3.88-3.88,3.87-10.16,0-14.03s-10.16-3.88-14.03,0c-3.87,3.87-3.87,10.16,0,14.03s10.16,3.88,14.03,0Z"/>
          <path class="cls-1" d="M1421.74,603.29c4.5-4.5,4.5-11.79,0-16.29-4.5-4.5-11.79-4.5-16.29,0s-4.5,11.79,0,16.29c4.5,4.5,11.79,4.5,16.29,0Z"/>
          <path class="cls-1" d="M1463.68,563.62c5.12-5.12,5.12-13.43,0-18.56s-13.43-5.12-18.56,0-5.12,13.43,0,18.56,13.43,5.12,18.56,0Z"/>
          <path class="cls-1" d="M1505.73,524.05c5.81-5.81,5.81-15.23,0-21.05-5.81-5.81-15.23-5.81-21.05,0-5.81,5.81-5.81,15.24,0,21.05,5.81,5.81,15.23,5.81,21.05,0Z"/>
          <path class="cls-1" d="M1547.67,484.38c6.44-6.44,6.44-16.87,0-23.31s-16.87-6.44-23.31,0c-6.44,6.44-6.44,16.87,0,23.31,6.44,6.44,16.87,6.44,23.31,0Z"/>
          <circle class="cls-1" cx="1576.82" cy="431.92" r="18.24"/>
          <circle class="cls-1" cx="1617.63" cy="391.11" r="19.84"/>
          <path class="cls-1" d="M1673.6,365.47c8.37-8.37,8.37-21.95,0-30.32s-21.95-8.37-30.33,0c-8.37,8.37-8.37,21.95,0,30.33,8.37,8.37,21.95,8.37,30.33,0Z"/>
          <path class="cls-1" d="M1715.54,325.79c9-9,9-23.59,0-32.59s-23.59-9-32.59,0c-9,9-9,23.59,0,32.59,9,9,23.59,9,32.59,0Z"/>
          <path class="cls-1" d="M1757.36,286c9.56-9.56,9.56-25.06,0-34.62s-25.06-9.56-34.63,0c-9.56,9.56-9.56,25.06,0,34.63,9.56,9.56,25.06,9.56,34.63,0Z"/>
          <circle class="cls-1" cx="1780.86" cy="227.88" r="25.12"/>
          <path class="cls-1" d="M1838.97,204.39c9.56-9.56,9.56-25.06,0-34.63-9.56-9.56-25.07-9.56-34.63,0s-9.56,25.06,0,34.63c9.56,9.56,25.06,9.56,34.63,0Z"/>
          <circle class="cls-1" cx="1862.47" cy="146.27" r="23.2"/>
          <path class="cls-1" d="M1918.55,120.74c8.44-8.44,8.44-22.12,0-30.55s-22.12-8.44-30.55,0-8.44,22.12,0,30.55c8.44,8.44,22.11,8.44,30.55,0Z"/>
          <path class="cls-1" d="M1210.47,881.7c.5-.5,.5-1.31,0-1.81s-1.31-.5-1.81,0-.5,1.31,0,1.81,1.31,.5,1.81,0Z"/>
          <path class="cls-1" d="M1252.4,842.02c1.13-1.13,1.13-2.95,0-4.07s-2.95-1.13-4.07,0-1.12,2.95,0,4.07,2.95,1.13,4.07,0Z"/>
          <path class="cls-1" d="M1294.46,802.46c1.81-1.81,1.81-4.75,0-6.56s-4.75-1.81-6.56,0-1.81,4.75,0,6.56,4.75,1.81,6.56,0Z"/>
          <path class="cls-1" d="M1336.39,762.78c2.44-2.44,2.44-6.39,0-8.83s-6.39-2.44-8.83,0-2.44,6.39,0,8.83,6.39,2.44,8.82,0Z"/>
          <circle class="cls-1" cx="1372.79" cy="717.57" r="8"/>
          <path class="cls-1" d="M1420.38,683.55c3.75-3.75,3.75-9.83,0-13.58s-9.83-3.75-13.58,0-3.75,9.83,0,13.58,9.83,3.75,13.58,0Z"/>
          <path class="cls-1" d="M1462.32,643.87c4.37-4.37,4.37-11.47,0-15.84s-11.47-4.37-15.84,0-4.37,11.47,0,15.84,11.47,4.37,15.84,0Z"/>
          <path class="cls-1" d="M1504.37,604.31c5.06-5.06,5.06-13.27,0-18.33s-13.27-5.06-18.33,0-5.06,13.27,0,18.33,13.27,5.06,18.33,0Z"/>
          <path class="cls-1" d="M1546.31,564.63c5.69-5.69,5.69-14.91,0-20.59-5.69-5.69-14.91-5.69-20.59,0-5.69,5.69-5.69,14.91,0,20.59,5.69,5.69,14.91,5.69,20.59,0Z"/>
          <path class="cls-1" d="M1588.25,524.96c6.31-6.31,6.31-16.55,0-22.86-6.31-6.31-16.55-6.31-22.86,0-6.31,6.31-6.31,16.55,0,22.86s16.55,6.31,22.86,0Z"/>
          <path class="cls-1" d="M1630.19,485.28c6.94-6.94,6.94-18.18,0-25.12s-18.18-6.94-25.12,0c-6.94,6.94-6.94,18.19,0,25.12s18.18,6.94,25.12,0Z"/>
          <circle class="cls-1" cx="1658.44" cy="431.92" r="19.36"/>
          <path class="cls-1" d="M1713.95,405.82c8.12-8.12,8.12-21.3,0-29.42s-21.3-8.13-29.42,0c-8.12,8.12-8.12,21.3,0,29.42s21.3,8.12,29.42,0Z"/>
          <circle class="cls-1" cx="1740.05" cy="350.3" r="22.08"/>
          <circle class="cls-1" cx="1780.86" cy="309.5" r="23.2"/>
          <circle class="cls-1" cx="1821.66" cy="268.69" r="23.52"/>
          <circle class="cls-1" cx="1862.47" cy="227.88" r="23.2"/>
          <path class="cls-1" d="M1919,202.81c8.69-8.69,8.69-22.77,0-31.46s-22.77-8.69-31.46,0-8.69,22.77,0,31.46,22.77,8.69,31.46,0Z"/>
          <path class="cls-1" d="M1251.05,922.28c.38-.38,.38-.98,0-1.36s-.98-.38-1.36,0-.37,.98,0,1.36,.98,.37,1.36,0Z"/>
          <circle class="cls-1" cx="1291.18" cy="880.79" r="2.72"/>
          <path class="cls-1" d="M1335.04,843.04c1.69-1.69,1.69-4.42,0-6.11s-4.42-1.69-6.11,0-1.69,4.42,0,6.11,4.42,1.69,6.11,0Z"/>
          <path class="cls-1" d="M1376.97,803.36c2.31-2.31,2.31-6.06,0-8.37s-6.06-2.31-8.37,0-2.31,6.06,0,8.37,6.06,2.31,8.37,0Z"/>
          <path class="cls-1" d="M1418.91,763.69c2.94-2.94,2.94-7.7,0-10.64-2.94-2.94-7.7-2.94-10.64,0s-2.94,7.7,0,10.64,7.7,2.94,10.64,0Z"/>
          <path class="cls-1" d="M1460.96,724.13c3.63-3.63,3.63-9.5,0-13.13s-9.5-3.63-13.13,0-3.62,9.5,0,13.13,9.5,3.62,13.12,0Z"/>
          <path class="cls-1" d="M1502.9,684.45c4.25-4.25,4.25-11.14,0-15.39s-11.14-4.25-15.39,0-4.25,11.14,0,15.39,11.14,4.25,15.39,0Z"/>
          <path class="cls-1" d="M1544.73,644.66c4.81-4.81,4.81-12.61,0-17.42-4.81-4.81-12.61-4.81-17.43,0s-4.81,12.61,0,17.43,12.61,4.81,17.43,0Z"/>
          <circle class="cls-1" cx="1576.82" cy="595.14" r="14.08"/>
          <path class="cls-1" d="M1628.61,565.31c6.06-6.06,6.06-15.89,0-21.95-6.06-6.06-15.89-6.06-21.95,0s-6.06,15.89,0,21.95c6.06,6.06,15.89,6.06,21.95,0Z"/>
          <path class="cls-1" d="M1670.43,525.53c6.62-6.62,6.62-17.36,0-23.99-6.62-6.62-17.37-6.62-23.99,0-6.62,6.62-6.62,17.37,0,23.99,6.62,6.62,17.36,6.62,23.99,0Z"/>
          <path class="cls-1" d="M1712.25,485.74c7.19-7.19,7.19-18.84,0-26.02-7.19-7.19-18.84-7.19-26.03,0-7.19,7.19-7.19,18.84,0,26.03,7.19,7.19,18.84,7.19,26.03,0Z"/>
          <path class="cls-1" d="M1753.97,445.84c7.69-7.69,7.69-20.15,0-27.84s-20.15-7.69-27.84,0c-7.69,7.69-7.69,20.15,0,27.84,7.69,7.69,20.15,7.69,27.84,0Z"/>
          <path class="cls-1" d="M1795.57,405.82c8.12-8.12,8.12-21.3,0-29.42-8.12-8.12-21.3-8.13-29.42,0-8.12,8.12-8.12,21.3,0,29.42,8.12,8.12,21.3,8.12,29.42,0Z"/>
          <circle class="cls-1" cx="1821.66" cy="350.3" r="21.6"/>
          <path class="cls-1" d="M1877.97,325c8.56-8.56,8.56-22.44,0-31s-22.44-8.56-31,0c-8.56,8.56-8.56,22.44,0,31.01s22.44,8.56,31,0Z"/>
          <circle class="cls-1" cx="1903.28" cy="268.69" r="21.6"/>
          <path class="cls-1" d="M1291.63,962.86c.25-.25,.25-.66,0-.91s-.66-.25-.91,0-.25,.66,0,.91,.66,.25,.9,0Z"/>
          <circle class="cls-1" cx="1331.98" cy="921.6" r="2.24"/>
          <circle class="cls-1" cx="1372.79" cy="880.79" r="3.84"/>
          <path class="cls-1" d="M1417.44,843.83c2.12-2.12,2.12-5.57,0-7.7s-5.57-2.12-7.7,0-2.12,5.57,0,7.69,5.57,2.12,7.69,0Z"/>
          <path class="cls-1" d="M1459.38,804.16c2.75-2.75,2.75-7.21,0-9.96-2.75-2.75-7.21-2.75-9.96,0s-2.75,7.21,0,9.96,7.21,2.75,9.96,0Z"/>
          <path class="cls-1" d="M1501.32,764.48c3.38-3.38,3.38-8.85,0-12.22s-8.85-3.37-12.22,0-3.38,8.85,0,12.22c3.37,3.37,8.85,3.37,12.22,0Z"/>
          <path class="cls-1" d="M1543.26,724.81c4-4,4-10.48,0-14.48s-10.48-4-14.48,0-4,10.49,0,14.48,10.49,4,14.48,0Z"/>
          <path class="cls-1" d="M1585.08,685.02c4.56-4.56,4.56-11.96,0-16.52-4.56-4.56-11.96-4.56-16.52,0s-4.56,11.96,0,16.52,11.96,4.56,16.52,0Z"/>
          <circle class="cls-1" cx="1617.63" cy="635.95" r="13.28"/>
          <path class="cls-1" d="M1668.85,605.55c5.75-5.75,5.75-15.07,0-20.82-5.75-5.75-15.07-5.75-20.82,0-5.75,5.75-5.75,15.07,0,20.82,5.75,5.75,15.07,5.75,20.82,0Z"/>
          <circle class="cls-1" cx="1699.24" cy="554.34" r="16"/>
          <path class="cls-1" d="M1752.27,525.75c6.75-6.75,6.75-17.69,0-24.44-6.75-6.75-17.69-6.75-24.44,0-6.75,6.75-6.75,17.69,0,24.44,6.75,6.75,17.69,6.75,24.44,0Z"/>
          <path class="cls-1" d="M1793.87,485.74c7.19-7.19,7.19-18.84,0-26.02-7.19-7.19-18.84-7.19-26.03,0-7.19,7.19-7.19,18.84,0,26.03,7.19,7.19,18.84,7.19,26.03,0Z"/>
          <circle class="cls-1" cx="1821.66" cy="431.92" r="19.36"/>
          <path class="cls-1" d="M1876.61,405.26c7.81-7.81,7.81-20.48,0-28.29-7.81-7.81-20.48-7.81-28.29,0s-7.81,20.48,0,28.29,20.48,7.81,28.29,0Z"/>
          <circle class="cls-1" cx="1903.28" cy="350.3" r="20.16"/>
          <circle class="cls-1" cx="1331.98" cy="1003.21" r=".32"/>
          <path class="cls-1" d="M1374.03,963.65c.69-.69,.69-1.8,0-2.49s-1.8-.69-2.49,0-.69,1.8,0,2.49,1.8,.69,2.49,0Z"/>
          <path class="cls-1" d="M1415.97,923.97c1.31-1.31,1.31-3.44,0-4.75s-3.44-1.31-4.75,0-1.31,3.44,0,4.75,3.44,1.31,4.75,0Z"/>
          <circle class="cls-1" cx="1454.4" cy="880.79" r="4.96"/>
          <path class="cls-1" d="M1499.73,844.51c2.5-2.5,2.5-6.55,0-9.05s-6.55-2.5-9.05,0-2.5,6.55,0,9.05c2.5,2.5,6.55,2.5,9.05,0Z"/>
          <path class="cls-1" d="M1541.67,804.84c3.12-3.12,3.12-8.19,0-11.32s-8.19-3.12-11.32,0-3.12,8.19,0,11.31,8.19,3.12,11.31,0Z"/>
          <path class="cls-1" d="M1583.5,765.05c3.69-3.69,3.69-9.67,0-13.35s-9.67-3.69-13.35,0c-3.69,3.69-3.69,9.67,0,13.35s9.67,3.69,13.35,0Z"/>
          <path class="cls-1" d="M1625.32,725.26c4.25-4.25,4.25-11.14,0-15.39s-11.14-4.25-15.39,0-4.25,11.14,0,15.39,11.14,4.25,15.39,0Z"/>
          <path class="cls-1" d="M1667.15,685.47c4.81-4.81,4.81-12.61,0-17.42-4.81-4.81-12.61-4.81-17.43,0-4.81,4.81-4.81,12.61,0,17.43,4.81,4.81,12.61,4.81,17.43,0Z"/>
          <path class="cls-1" d="M1708.97,645.68c5.37-5.37,5.37-14.09,0-19.46s-14.09-5.37-19.46,0-5.37,14.09,0,19.46,14.09,5.37,19.46,0Z"/>
          <path class="cls-1" d="M1750.69,605.78c5.87-5.87,5.87-15.4,0-21.27s-15.4-5.88-21.27,0-5.87,15.4,0,21.27c5.87,5.87,15.4,5.87,21.27,0Z"/>
          <path class="cls-1" d="M1792.28,565.77c6.31-6.31,6.31-16.54,0-22.86-6.31-6.31-16.55-6.31-22.86,0-6.31,6.31-6.31,16.55,0,22.86,6.31,6.31,16.55,6.31,22.86,0Z"/>
          <path class="cls-1" d="M1833.66,525.53c6.62-6.62,6.62-17.36,0-23.99-6.62-6.62-17.37-6.62-23.99,0-6.62,6.62-6.62,17.37,0,23.99,6.62,6.62,17.36,6.62,23.99,0Z"/>
          <path class="cls-1" d="M1875.03,485.28c6.94-6.94,6.94-18.18,0-25.12-6.94-6.94-18.18-6.94-25.12,0s-6.94,18.18,0,25.12,18.18,6.94,25.12,0Z"/>
          <path class="cls-1" d="M1916.29,444.93c7.19-7.19,7.19-18.84,0-26.02s-18.84-7.19-26.03,0-7.19,18.84,0,26.03c7.19,7.19,18.84,7.19,26.03,0Z"/>
          <circle class="cls-1" cx="1413.6" cy="1003.21" r="1.12"/>
          <path class="cls-1" d="M1456.33,964.33c1.06-1.06,1.06-2.79,0-3.85s-2.79-1.06-3.85,0-1.06,2.78,0,3.85,2.78,1.06,3.85,0Z"/>
          <circle class="cls-1" cx="1495.21" cy="921.6" r="4.16"/>
          <path class="cls-1" d="M1540.09,884.87c2.25-2.25,2.25-5.9,0-8.15s-5.9-2.25-8.15,0-2.25,5.9,0,8.15,5.9,2.25,8.15,0Z"/>
          <path class="cls-1" d="M1581.91,845.08c2.81-2.81,2.81-7.37,0-10.18s-7.37-2.81-10.18,0-2.81,7.37,0,10.18c2.81,2.81,7.37,2.81,10.18,0Z"/>
          <path class="cls-1" d="M1623.74,805.29c3.37-3.37,3.37-8.85,0-12.22-3.38-3.38-8.85-3.37-12.22,0s-3.38,8.85,0,12.22c3.37,3.37,8.85,3.37,12.22,0Z"/>
          <path class="cls-1" d="M1665.45,765.39c3.87-3.87,3.87-10.16,0-14.03-3.87-3.87-10.16-3.88-14.03,0s-3.87,10.16,0,14.03c3.87,3.87,10.16,3.88,14.03,0Z"/>
          <path class="cls-1" d="M1707.28,725.6c4.44-4.44,4.44-11.63,0-16.07-4.44-4.44-11.63-4.44-16.07,0s-4.44,11.63,0,16.07,11.63,4.44,16.07,0Z"/>
          <path class="cls-1" d="M1748.88,685.58c4.87-4.87,4.87-12.78,0-17.65-4.87-4.87-12.78-4.87-17.65,0s-4.88,12.78,0,17.65c4.87,4.87,12.78,4.87,17.65,0Z"/>
          <circle class="cls-1" cx="1780.86" cy="635.95" r="13.76"/>
          <path class="cls-1" d="M1832.07,605.55c5.75-5.75,5.75-15.07,0-20.82s-15.07-5.75-20.82,0c-5.75,5.75-5.75,15.07,0,20.82,5.75,5.75,15.07,5.75,20.82,0Z"/>
          <circle class="cls-1" cx="1862.47" cy="554.34" r="15.52"/>
          <path class="cls-1" d="M1914.7,524.96c6.31-6.31,6.31-16.54,0-22.86-6.31-6.31-16.55-6.31-22.86,0-6.31,6.31-6.31,16.55,0,22.86,6.31,6.31,16.55,6.31,22.86,0Z"/>
          <path class="cls-1" d="M1454.74,1044.36c.19-.19,.19-.49,0-.68s-.49-.19-.68,0-.19,.49,0,.68,.49,.19,.68,0Z"/>
          <circle class="cls-1" cx="1495.21" cy="1003.21" r="1.92"/>
          <path class="cls-1" d="M1538.39,964.78c1.31-1.31,1.31-3.44,0-4.75s-3.44-1.31-4.75,0-1.31,3.44,0,4.75,3.44,1.31,4.75,0Z"/>
          <path class="cls-1" d="M1580.22,924.99c1.88-1.88,1.88-4.91,0-6.79s-4.91-1.87-6.79,0-1.87,4.91,0,6.79,4.91,1.87,6.79,0Z"/>
          <path class="cls-1" d="M1622.04,885.21c2.44-2.44,2.44-6.39,0-8.83s-6.39-2.44-8.83,0-2.44,6.39,0,8.83,6.39,2.44,8.83,0Z"/>
          <path class="cls-1" d="M1663.75,845.3c2.94-2.94,2.94-7.7,0-10.64s-7.7-2.94-10.64,0-2.94,7.7,0,10.64,7.7,2.94,10.64,0Z"/>
          <path class="cls-1" d="M1705.58,805.51c3.5-3.5,3.5-9.17,0-12.67s-9.17-3.5-12.67,0c-3.5,3.5-3.5,9.17,0,12.67s9.17,3.5,12.67,0Z"/>
          <path class="cls-1" d="M1747.18,765.5c3.94-3.94,3.94-10.32,0-14.26s-10.32-3.94-14.26,0-3.94,10.32,0,14.26,10.32,3.94,14.26,0Z"/>
          <path class="cls-1" d="M1788.89,725.6c4.44-4.44,4.44-11.63,0-16.07-4.44-4.44-11.63-4.44-16.07,0-4.44,4.44-4.44,11.63,0,16.07s11.63,4.44,16.07,0Z"/>
          <path class="cls-1" d="M1830.38,685.47c4.81-4.81,4.81-12.61,0-17.43s-12.61-4.81-17.43,0-4.81,12.61,0,17.43,12.61,4.81,17.43,0Z"/>
          <circle class="cls-1" cx="1862.47" cy="635.95" r="13.28"/>
          <circle class="cls-1" cx="1903.28" cy="595.14" r="14.08"/>
          <circle class="cls-1" cx="1536.01" cy="1044.02" r="1.12"/>
          <path class="cls-1" d="M1578.63,1005.02c1-1,1-2.62,0-3.62s-2.62-1-3.62,0-1,2.62,0,3.62,2.62,1,3.62,0Z"/>
          <path class="cls-1" d="M1620.34,965.12c1.5-1.5,1.5-3.93,0-5.43s-3.93-1.5-5.43,0-1.5,3.93,0,5.43,3.93,1.5,5.43,0Z"/>
          <path class="cls-1" d="M1662.17,925.33c2.06-2.06,2.06-5.41,0-7.47-2.06-2.06-5.41-2.06-7.47,0s-2.06,5.41,0,7.47,5.41,2.06,7.47,0Z"/>
          <path class="cls-1" d="M1703.88,885.43c2.56-2.56,2.56-6.72,0-9.28s-6.72-2.56-9.28,0-2.56,6.72,0,9.28,6.72,2.56,9.28,0Z"/>
          <path class="cls-1" d="M1745.59,845.53c3.06-3.06,3.06-8.03,0-11.09s-8.03-3.06-11.09,0-3.06,8.03,0,11.09,8.03,3.06,11.09,0Z"/>
          <path class="cls-1" d="M1787.19,805.51c3.5-3.5,3.5-9.17,0-12.67s-9.17-3.5-12.67,0-3.5,9.17,0,12.67,9.17,3.5,12.67,0Z"/>
          <path class="cls-1" d="M1828.79,765.5c3.94-3.94,3.94-10.32,0-14.26s-10.32-3.94-14.26,0-3.94,10.32,0,14.26,10.32,3.94,14.26,0Z"/>
          <path class="cls-1" d="M1870.16,725.26c4.25-4.25,4.25-11.14,0-15.39s-11.14-4.25-15.39,0c-4.25,4.25-4.25,11.14,0,15.39s11.14,4.25,15.39,0Z"/>
          <circle class="cls-1" cx="1903.28" cy="676.76" r="11.84"/>
          <path class="cls-1" d="M1618.76,1045.15c.63-.63,.62-1.64,0-2.26s-1.64-.63-2.26,0-.62,1.64,0,2.26,1.64,.63,2.26,0Z"/>
          <path class="cls-1" d="M1660.47,1005.25c1.13-1.13,1.13-2.95,0-4.07s-2.95-1.12-4.07,0-1.13,2.95,0,4.07,2.95,1.12,4.07,0Z"/>
          <path class="cls-1" d="M1702.18,965.35c1.63-1.63,1.63-4.26,0-5.88s-4.26-1.62-5.88,0-1.62,4.26,0,5.88,4.26,1.62,5.88,0Z"/>
          <path class="cls-1" d="M1743.9,925.44c2.12-2.12,2.12-5.57,0-7.69s-5.57-2.12-7.69,0-2.12,5.57,0,7.7,5.57,2.12,7.7,0Z"/>
          <path class="cls-1" d="M1785.5,885.43c2.56-2.56,2.56-6.72,0-9.28s-6.72-2.56-9.28,0-2.56,6.72,0,9.28,6.72,2.56,9.28,0Z"/>
          <path class="cls-1" d="M1827.09,845.42c3-3,3-7.86,0-10.86s-7.86-3-10.86,0-3,7.86,0,10.86,7.86,3,10.86,0Z"/>
          <path class="cls-1" d="M1868.58,805.29c3.37-3.37,3.38-8.85,0-12.22-3.38-3.38-8.85-3.37-12.22,0s-3.38,8.85,0,12.22,8.85,3.37,12.22,0Z"/>
          <path class="cls-1" d="M1910.07,765.16c3.75-3.75,3.75-9.83,0-13.58s-9.83-3.75-13.58,0-3.75,9.83,0,13.58,9.83,3.75,13.58,0Z"/>
          <path class="cls-1" d="M1700.49,1045.26c.69-.69,.69-1.8,0-2.49s-1.8-.69-2.49,0-.69,1.8,0,2.49,1.8,.69,2.49,0Z"/>
          <circle class="cls-1" cx="1740.05" cy="1003.21" r="3.04"/>
          <path class="cls-1" d="M1783.8,965.35c1.62-1.62,1.62-4.26,0-5.88s-4.26-1.62-5.88,0-1.63,4.26,0,5.88,4.26,1.62,5.88,0Z"/>
          <path class="cls-1" d="M1825.4,925.33c2.06-2.06,2.06-5.41,0-7.47s-5.41-2.06-7.47,0-2.06,5.41,0,7.47,5.41,2.06,7.47,0Z"/>
          <path class="cls-1" d="M1866.88,885.2c2.44-2.44,2.44-6.39,0-8.83s-6.39-2.44-8.83,0-2.44,6.39,0,8.83,6.39,2.44,8.83,0Z"/>
          <circle class="cls-1" cx="1903.28" cy="839.98" r="7.2"/>
          <path class="cls-1" d="M1782.1,1045.26c.69-.69,.69-1.8,0-2.49s-1.8-.69-2.49,0-.69,1.8,0,2.49,1.8,.69,2.49,0Z"/>
          <path class="cls-1" d="M1823.7,1005.25c1.12-1.12,1.12-2.95,0-4.07s-2.95-1.12-4.07,0-1.13,2.95,0,4.07,2.95,1.13,4.07,0Z"/>
          <path class="cls-1" d="M1865.18,965.12c1.5-1.5,1.5-3.93,0-5.43s-3.93-1.5-5.43,0-1.5,3.93,0,5.43,3.93,1.5,5.43,0Z"/>
          <circle class="cls-1" cx="1903.28" cy="921.6" r="4.96"/>
          <path class="cls-1" d="M1863.6,1045.15c.62-.62,.62-1.64,0-2.26s-1.64-.63-2.26,0-.62,1.64,0,2.26,1.64,.63,2.26,0Z"/>
          <path class="cls-1" d="M1905.09,1005.02c1-1,1-2.62,0-3.62s-2.62-1-3.62,0-1,2.62,0,3.62,2.62,1,3.62,0Z"/>
        </g>
      </g>
    </g>
  </g>
</svg>